2/16/2026 5:40:26 PM: ffmpeg version 8.0.1-essentials_build-www.gyan.dev Copyright (c) 2000-2025 the FFmpeg developers
2/16/2026 5:40:26 PM:   built with gcc 15.2.0 (Rev8, Built by MSYS2 project)
2/16/2026 5:40:26 PM:   configuration: --enable-gpl --enable-version3 --enable-static --disable-w32threads --disable-autodetect --enable-fontconfig --enable-iconv --enable-gnutls --enable-libxml2 --enable-gmp --enable-bzlib --enable-lzma --enable-zlib --enable-libsrt --enable-libssh --enable-libzmq --enable-avisynth --enable-sdl2 --enable-libwebp --enable-libx264 --enable-libx265 --enable-libxvid --enable-libaom --enable-libopenjpeg --enable-libvpx --enable-mediafoundation --enable-libass --enable-libfreetype --enable-libfribidi --enable-libharfbuzz --enable-libvidstab --enable-libvmaf --enable-libzimg --enable-amf --enable-cuda-llvm --enable-cuvid --enable-dxva2 --enable-d3d11va --enable-d3d12va --enable-ffnvcodec --enable-libvpl --enable-nvdec --enable-nvenc --enable-vaapi --enable-openal --enable-libgme --enable-libopenmpt --enable-libopencore-amrwb --enable-libmp3lame --enable-libtheora --enable-libvo-amrwbenc --enable-libgsm --enable-libopencore-amrnb --enable-libopus --enable-libspeex --enable-libvorbis --enable-librubberband
2/16/2026 5:40:26 PM:   libavutil      60.  8.100 / 60.  8.100
2/16/2026 5:40:26 PM:   libavcodec     62. 11.100 / 62. 11.100
2/16/2026 5:40:26 PM:   libavformat    62.  3.100 / 62.  3.100
2/16/2026 5:40:26 PM:   libavdevice    62.  1.100 / 62.  1.100
2/16/2026 5:40:26 PM:   libavfilter    11.  4.100 / 11.  4.100
2/16/2026 5:40:26 PM:   libswscale      9.  1.100 /  9.  1.100
2/16/2026 5:40:26 PM:   libswresample   6.  1.100 /  6.  1.100
2/16/2026 5:40:36 PM: ffmpeg version 8.0.1-essentials_build-www.gyan.dev Copyright (c) 2000-2025 the FFmpeg developers
2/16/2026 5:40:36 PM:   built with gcc 15.2.0 (Rev8, Built by MSYS2 project)
2/16/2026 5:40:36 PM:   configuration: --enable-gpl --enable-version3 --enable-static --disable-w32threads --disable-autodetect --enable-fontconfig --enable-iconv --enable-gnutls --enable-libxml2 --enable-gmp --enable-bzlib --enable-lzma --enable-zlib --enable-libsrt --enable-libssh --enable-libzmq --enable-avisynth --enable-sdl2 --enable-libwebp --enable-libx264 --enable-libx265 --enable-libxvid --enable-libaom --enable-libopenjpeg --enable-libvpx --enable-mediafoundation --enable-libass --enable-libfreetype --enable-libfribidi --enable-libharfbuzz --enable-libvidstab --enable-libvmaf --enable-libzimg --enable-amf --enable-cuda-llvm --enable-cuvid --enable-dxva2 --enable-d3d11va --enable-d3d12va --enable-ffnvcodec --enable-libvpl --enable-nvdec --enable-nvenc --enable-vaapi --enable-openal --enable-libgme --enable-libopenmpt --enable-libopencore-amrwb --enable-libmp3lame --enable-libtheora --enable-libvo-amrwbenc --enable-libgsm --enable-libopencore-amrnb --enable-libopus --enable-libspeex --enable-libvorbis --enable-librubberband
2/16/2026 5:40:36 PM:   libavutil      60.  8.100 / 60.  8.100
2/16/2026 5:40:36 PM:   libavcodec     62. 11.100 / 62. 11.100
2/16/2026 5:40:36 PM:   libavformat    62.  3.100 / 62.  3.100
2/16/2026 5:40:36 PM:   libavdevice    62.  1.100 / 62.  1.100
2/16/2026 5:40:36 PM:   libavfilter    11.  4.100 / 11.  4.100
2/16/2026 5:40:36 PM:   libswscale      9.  1.100 /  9.  1.100
2/16/2026 5:40:36 PM:   libswresample   6.  1.100 /  6.  1.100
2/16/2026 5:40:46 PM: ffmpeg version 8.0.1-essentials_build-www.gyan.dev Copyright (c) 2000-2025 the FFmpeg developers
2/16/2026 5:40:46 PM:   built with gcc 15.2.0 (Rev8, Built by MSYS2 project)
2/16/2026 5:40:46 PM:   configuration: --enable-gpl --enable-version3 --enable-static --disable-w32threads --disable-autodetect --enable-fontconfig --enable-iconv --enable-gnutls --enable-libxml2 --enable-gmp --enable-bzlib --enable-lzma --enable-zlib --enable-libsrt --enable-libssh --enable-libzmq --enable-avisynth --enable-sdl2 --enable-libwebp --enable-libx264 --enable-libx265 --enable-libxvid --enable-libaom --enable-libopenjpeg --enable-libvpx --enable-mediafoundation --enable-libass --enable-libfreetype --enable-libfribidi --enable-libharfbuzz --enable-libvidstab --enable-libvmaf --enable-libzimg --enable-amf --enable-cuda-llvm --enable-cuvid --enable-dxva2 --enable-d3d11va --enable-d3d12va --enable-ffnvcodec --enable-libvpl --enable-nvdec --enable-nvenc --enable-vaapi --enable-openal --enable-libgme --enable-libopenmpt --enable-libopencore-amrwb --enable-libmp3lame --enable-libtheora --enable-libvo-amrwbenc --enable-libgsm --enable-libopencore-amrnb --enable-libopus --enable-libspeex --enable-libvorbis --enable-librubberband
2/16/2026 5:40:46 PM:   libavutil      60.  8.100 / 60.  8.100
2/16/2026 5:40:46 PM:   libavcodec     62. 11.100 / 62. 11.100
2/16/2026 5:40:46 PM:   libavformat    62.  3.100 / 62.  3.100
2/16/2026 5:40:46 PM:   libavdevice    62.  1.100 / 62.  1.100
2/16/2026 5:40:46 PM:   libavfilter    11.  4.100 / 11.  4.100
2/16/2026 5:40:46 PM:   libswscale      9.  1.100 /  9.  1.100
2/16/2026 5:40:46 PM:   libswresample   6.  1.100 /  6.  1.100
2/16/2026 5:41:06 PM: ffmpeg version 8.0.1-essentials_build-www.gyan.dev Copyright (c) 2000-2025 the FFmpeg developers
2/16/2026 5:41:06 PM:   built with gcc 15.2.0 (Rev8, Built by MSYS2 project)
2/16/2026 5:41:06 PM:   configuration: --enable-gpl --enable-version3 --enable-static --disable-w32threads --disable-autodetect --enable-fontconfig --enable-iconv --enable-gnutls --enable-libxml2 --enable-gmp --enable-bzlib --enable-lzma --enable-zlib --enable-libsrt --enable-libssh --enable-libzmq --enable-avisynth --enable-sdl2 --enable-libwebp --enable-libx264 --enable-libx265 --enable-libxvid --enable-libaom --enable-libopenjpeg --enable-libvpx --enable-mediafoundation --enable-libass --enable-libfreetype --enable-libfribidi --enable-libharfbuzz --enable-libvidstab --enable-libvmaf --enable-libzimg --enable-amf --enable-cuda-llvm --enable-cuvid --enable-dxva2 --enable-d3d11va --enable-d3d12va --enable-ffnvcodec --enable-libvpl --enable-nvdec --enable-nvenc --enable-vaapi --enable-openal --enable-libgme --enable-libopenmpt --enable-libopencore-amrwb --enable-libmp3lame --enable-libtheora --enable-libvo-amrwbenc --enable-libgsm --enable-libopencore-amrnb --enable-libopus --enable-libspeex --enable-libvorbis --enable-librubberband
2/16/2026 5:41:06 PM:   libavutil      60.  8.100 / 60.  8.100
2/16/2026 5:41:06 PM:   libavcodec     62. 11.100 / 62. 11.100
2/16/2026 5:41:06 PM:   libavformat    62.  3.100 / 62.  3.100
2/16/2026 5:41:06 PM:   libavdevice    62.  1.100 / 62.  1.100
2/16/2026 5:41:06 PM:   libavfilter    11.  4.100 / 11.  4.100
2/16/2026 5:41:06 PM:   libswscale      9.  1.100 /  9.  1.100
2/16/2026 5:41:06 PM:   libswresample   6.  1.100 /  6.  1.100
2/16/2026 5:41:16 PM: ffmpeg version 8.0.1-essentials_build-www.gyan.dev Copyright (c) 2000-2025 the FFmpeg developers
2/16/2026 5:41:16 PM:   built with gcc 15.2.0 (Rev8, Built by MSYS2 project)
2/16/2026 5:41:16 PM:   configuration: --enable-gpl --enable-version3 --enable-static --disable-w32threads --disable-autodetect --enable-fontconfig --enable-iconv --enable-gnutls --enable-libxml2 --enable-gmp --enable-bzlib --enable-lzma --enable-zlib --enable-libsrt --enable-libssh --enable-libzmq --enable-avisynth --enable-sdl2 --enable-libwebp --enable-libx264 --enable-libx265 --enable-libxvid --enable-libaom --enable-libopenjpeg --enable-libvpx --enable-mediafoundation --enable-libass --enable-libfreetype --enable-libfribidi --enable-libharfbuzz --enable-libvidstab --enable-libvmaf --enable-libzimg --enable-amf --enable-cuda-llvm --enable-cuvid --enable-dxva2 --enable-d3d11va --enable-d3d12va --enable-ffnvcodec --enable-libvpl --enable-nvdec --enable-nvenc --enable-vaapi --enable-openal --enable-libgme --enable-libopenmpt --enable-libopencore-amrwb --enable-libmp3lame --enable-libtheora --enable-libvo-amrwbenc --enable-libgsm --enable-libopencore-amrnb --enable-libopus --enable-libspeex --enable-libvorbis --enable-librubberband
2/16/2026 5:41:16 PM:   libavutil      60.  8.100 / 60.  8.100
2/16/2026 5:41:16 PM:   libavcodec     62. 11.100 / 62. 11.100
2/16/2026 5:41:16 PM:   libavformat    62.  3.100 / 62.  3.100
2/16/2026 5:41:16 PM:   libavdevice    62.  1.100 / 62.  1.100
2/16/2026 5:41:16 PM:   libavfilter    11.  4.100 / 11.  4.100
2/16/2026 5:41:16 PM:   libswscale      9.  1.100 /  9.  1.100
2/16/2026 5:41:16 PM:   libswresample   6.  1.100 /  6.  1.100
2/16/2026 5:41:26 PM: ffmpeg version 8.0.1-essentials_build-www.gyan.dev Copyright (c) 2000-2025 the FFmpeg developers
2/16/2026 5:41:26 PM:   built with gcc 15.2.0 (Rev8, Built by MSYS2 project)
2/16/2026 5:41:26 PM:   configuration: --enable-gpl --enable-version3 --enable-static --disable-w32threads --disable-autodetect --enable-fontconfig --enable-iconv --enable-gnutls --enable-libxml2 --enable-gmp --enable-bzlib --enable-lzma --enable-zlib --enable-libsrt --enable-libssh --enable-libzmq --enable-avisynth --enable-sdl2 --enable-libwebp --enable-libx264 --enable-libx265 --enable-libxvid --enable-libaom --enable-libopenjpeg --enable-libvpx --enable-mediafoundation --enable-libass --enable-libfreetype --enable-libfribidi --enable-libharfbuzz --enable-libvidstab --enable-libvmaf --enable-libzimg --enable-amf --enable-cuda-llvm --enable-cuvid --enable-dxva2 --enable-d3d11va --enable-d3d12va --enable-ffnvcodec --enable-libvpl --enable-nvdec --enable-nvenc --enable-vaapi --enable-openal --enable-libgme --enable-libopenmpt --enable-libopencore-amrwb --enable-libmp3lame --enable-libtheora --enable-libvo-amrwbenc --enable-libgsm --enable-libopencore-amrnb --enable-libopus --enable-libspeex --enable-libvorbis --enable-librubberband
2/16/2026 5:41:26 PM:   libavutil      60.  8.100 / 60.  8.100
2/16/2026 5:41:26 PM:   libavcodec     62. 11.100 / 62. 11.100
2/16/2026 5:41:26 PM:   libavformat    62.  3.100 / 62.  3.100
2/16/2026 5:41:26 PM:   libavdevice    62.  1.100 / 62.  1.100
2/16/2026 5:41:26 PM:   libavfilter    11.  4.100 / 11.  4.100
2/16/2026 5:41:26 PM:   libswscale      9.  1.100 /  9.  1.100
2/16/2026 5:41:26 PM:   libswresample   6.  1.100 /  6.  1.100
2/16/2026 5:41:46 PM: ffmpeg version 8.0.1-essentials_build-www.gyan.dev Copyright (c) 2000-2025 the FFmpeg developers
2/16/2026 5:41:46 PM:   built with gcc 15.2.0 (Rev8, Built by MSYS2 project)
2/16/2026 5:41:46 PM:   configuration: --enable-gpl --enable-version3 --enable-static --disable-w32threads --disable-autodetect --enable-fontconfig --enable-iconv --enable-gnutls --enable-libxml2 --enable-gmp --enable-bzlib --enable-lzma --enable-zlib --enable-libsrt --enable-libssh --enable-libzmq --enable-avisynth --enable-sdl2 --enable-libwebp --enable-libx264 --enable-libx265 --enable-libxvid --enable-libaom --enable-libopenjpeg --enable-libvpx --enable-mediafoundation --enable-libass --enable-libfreetype --enable-libfribidi --enable-libharfbuzz --enable-libvidstab --enable-libvmaf --enable-libzimg --enable-amf --enable-cuda-llvm --enable-cuvid --enable-dxva2 --enable-d3d11va --enable-d3d12va --enable-ffnvcodec --enable-libvpl --enable-nvdec --enable-nvenc --enable-vaapi --enable-openal --enable-libgme --enable-libopenmpt --enable-libopencore-amrwb --enable-libmp3lame --enable-libtheora --enable-libvo-amrwbenc --enable-libgsm --enable-libopencore-amrnb --enable-libopus --enable-libspeex --enable-libvorbis --enable-librubberband
2/16/2026 5:41:46 PM:   libavutil      60.  8.100 / 60.  8.100
2/16/2026 5:41:46 PM:   libavcodec     62. 11.100 / 62. 11.100
2/16/2026 5:41:46 PM:   libavformat    62.  3.100 / 62.  3.100
2/16/2026 5:41:46 PM:   libavdevice    62.  1.100 / 62.  1.100
2/16/2026 5:41:46 PM:   libavfilter    11.  4.100 / 11.  4.100
2/16/2026 5:41:46 PM:   libswscale      9.  1.100 /  9.  1.100
2/16/2026 5:41:46 PM:   libswresample   6.  1.100 /  6.  1.100
2/16/2026 5:41:56 PM: ffmpeg version 8.0.1-essentials_build-www.gyan.dev Copyright (c) 2000-2025 the FFmpeg developers
2/16/2026 5:41:56 PM:   built with gcc 15.2.0 (Rev8, Built by MSYS2 project)
2/16/2026 5:41:56 PM:   configuration: --enable-gpl --enable-version3 --enable-static --disable-w32threads --disable-autodetect --enable-fontconfig --enable-iconv --enable-gnutls --enable-libxml2 --enable-gmp --enable-bzlib --enable-lzma --enable-zlib --enable-libsrt --enable-libssh --enable-libzmq --enable-avisynth --enable-sdl2 --enable-libwebp --enable-libx264 --enable-libx265 --enable-libxvid --enable-libaom --enable-libopenjpeg --enable-libvpx --enable-mediafoundation --enable-libass --enable-libfreetype --enable-libfribidi --enable-libharfbuzz --enable-libvidstab --enable-libvmaf --enable-libzimg --enable-amf --enable-cuda-llvm --enable-cuvid --enable-dxva2 --enable-d3d11va --enable-d3d12va --enable-ffnvcodec --enable-libvpl --enable-nvdec --enable-nvenc --enable-vaapi --enable-openal --enable-libgme --enable-libopenmpt --enable-libopencore-amrwb --enable-libmp3lame --enable-libtheora --enable-libvo-amrwbenc --enable-libgsm --enable-libopencore-amrnb --enable-libopus --enable-libspeex --enable-libvorbis --enable-librubberband
2/16/2026 5:41:56 PM:   libavutil      60.  8.100 / 60.  8.100
2/16/2026 5:41:56 PM:   libavcodec     62. 11.100 / 62. 11.100
2/16/2026 5:41:56 PM:   libavformat    62.  3.100 / 62.  3.100
2/16/2026 5:41:56 PM:   libavdevice    62.  1.100 / 62.  1.100
2/16/2026 5:41:56 PM:   libavfilter    11.  4.100 / 11.  4.100
2/16/2026 5:41:56 PM:   libswscale      9.  1.100 /  9.  1.100
2/16/2026 5:41:56 PM:   libswresample   6.  1.100 /  6.  1.100
2/16/2026 5:42:06 PM: ffmpeg version 8.0.1-essentials_build-www.gyan.dev Copyright (c) 2000-2025 the FFmpeg developers
2/16/2026 5:42:06 PM:   built with gcc 15.2.0 (Rev8, Built by MSYS2 project)
2/16/2026 5:42:06 PM:   configuration: --enable-gpl --enable-version3 --enable-static --disable-w32threads --disable-autodetect --enable-fontconfig --enable-iconv --enable-gnutls --enable-libxml2 --enable-gmp --enable-bzlib --enable-lzma --enable-zlib --enable-libsrt --enable-libssh --enable-libzmq --enable-avisynth --enable-sdl2 --enable-libwebp --enable-libx264 --enable-libx265 --enable-libxvid --enable-libaom --enable-libopenjpeg --enable-libvpx --enable-mediafoundation --enable-libass --enable-libfreetype --enable-libfribidi --enable-libharfbuzz --enable-libvidstab --enable-libvmaf --enable-libzimg --enable-amf --enable-cuda-llvm --enable-cuvid --enable-dxva2 --enable-d3d11va --enable-d3d12va --enable-ffnvcodec --enable-libvpl --enable-nvdec --enable-nvenc --enable-vaapi --enable-openal --enable-libgme --enable-libopenmpt --enable-libopencore-amrwb --enable-libmp3lame --enable-libtheora --enable-libvo-amrwbenc --enable-libgsm --enable-libopencore-amrnb --enable-libopus --enable-libspeex --enable-libvorbis --enable-librubberband
2/16/2026 5:42:06 PM:   libavutil      60.  8.100 / 60.  8.100
2/16/2026 5:42:06 PM:   libavcodec     62. 11.100 / 62. 11.100
2/16/2026 5:42:06 PM:   libavformat    62.  3.100 / 62.  3.100
2/16/2026 5:42:06 PM:   libavdevice    62.  1.100 / 62.  1.100
2/16/2026 5:42:06 PM:   libavfilter    11.  4.100 / 11.  4.100
2/16/2026 5:42:06 PM:   libswscale      9.  1.100 /  9.  1.100
2/16/2026 5:42:06 PM:   libswresample   6.  1.100 /  6.  1.100
2/16/2026 5:42:17 PM: ffmpeg version 8.0.1-essentials_build-www.gyan.dev Copyright (c) 2000-2025 the FFmpeg developers
2/16/2026 5:42:17 PM:   built with gcc 15.2.0 (Rev8, Built by MSYS2 project)
2/16/2026 5:42:17 PM:   configuration: --enable-gpl --enable-version3 --enable-static --disable-w32threads --disable-autodetect --enable-fontconfig --enable-iconv --enable-gnutls --enable-libxml2 --enable-gmp --enable-bzlib --enable-lzma --enable-zlib --enable-libsrt --enable-libssh --enable-libzmq --enable-avisynth --enable-sdl2 --enable-libwebp --enable-libx264 --enable-libx265 --enable-libxvid --enable-libaom --enable-libopenjpeg --enable-libvpx --enable-mediafoundation --enable-libass --enable-libfreetype --enable-libfribidi --enable-libharfbuzz --enable-libvidstab --enable-libvmaf --enable-libzimg --enable-amf --enable-cuda-llvm --enable-cuvid --enable-dxva2 --enable-d3d11va --enable-d3d12va --enable-ffnvcodec --enable-libvpl --enable-nvdec --enable-nvenc --enable-vaapi --enable-openal --enable-libgme --enable-libopenmpt --enable-libopencore-amrwb --enable-libmp3lame --enable-libtheora --enable-libvo-amrwbenc --enable-libgsm --enable-libopencore-amrnb --enable-libopus --enable-libspeex --enable-libvorbis --enable-librubberband
2/16/2026 5:42:17 PM:   libavutil      60.  8.100 / 60.  8.100
2/16/2026 5:42:17 PM:   libavcodec     62. 11.100 / 62. 11.100
2/16/2026 5:42:17 PM:   libavformat    62.  3.100 / 62.  3.100
2/16/2026 5:42:17 PM:   libavdevice    62.  1.100 / 62.  1.100
2/16/2026 5:42:17 PM:   libavfilter    11.  4.100 / 11.  4.100
2/16/2026 5:42:17 PM:   libswscale      9.  1.100 /  9.  1.100
2/16/2026 5:42:17 PM:   libswresample   6.  1.100 /  6.  1.100
2/16/2026 5:42:27 PM: ffmpeg version 8.0.1-essentials_build-www.gyan.dev Copyright (c) 2000-2025 the FFmpeg developers
2/16/2026 5:42:27 PM:   built with gcc 15.2.0 (Rev8, Built by MSYS2 project)
2/16/2026 5:42:27 PM:   configuration: --enable-gpl --enable-version3 --enable-static --disable-w32threads --disable-autodetect --enable-fontconfig --enable-iconv --enable-gnutls --enable-libxml2 --enable-gmp --enable-bzlib --enable-lzma --enable-zlib --enable-libsrt --enable-libssh --enable-libzmq --enable-avisynth --enable-sdl2 --enable-libwebp --enable-libx264 --enable-libx265 --enable-libxvid --enable-libaom --enable-libopenjpeg --enable-libvpx --enable-mediafoundation --enable-libass --enable-libfreetype --enable-libfribidi --enable-libharfbuzz --enable-libvidstab --enable-libvmaf --enable-libzimg --enable-amf --enable-cuda-llvm --enable-cuvid --enable-dxva2 --enable-d3d11va --enable-d3d12va --enable-ffnvcodec --enable-libvpl --enable-nvdec --enable-nvenc --enable-vaapi --enable-openal --enable-libgme --enable-libopenmpt --enable-libopencore-amrwb --enable-libmp3lame --enable-libtheora --enable-libvo-amrwbenc --enable-libgsm --enable-libopencore-amrnb --enable-libopus --enable-libspeex --enable-libvorbis --enable-librubberband
2/16/2026 5:42:27 PM:   libavutil      60.  8.100 / 60.  8.100
2/16/2026 5:42:27 PM:   libavcodec     62. 11.100 / 62. 11.100
2/16/2026 5:42:27 PM:   libavformat    62.  3.100 / 62.  3.100
2/16/2026 5:42:27 PM:   libavdevice    62.  1.100 / 62.  1.100
2/16/2026 5:42:27 PM:   libavfilter    11.  4.100 / 11.  4.100
2/16/2026 5:42:27 PM:   libswscale      9.  1.100 /  9.  1.100
2/16/2026 5:42:27 PM:   libswresample   6.  1.100 /  6.  1.100
2/16/2026 5:42:37 PM: ffmpeg version 8.0.1-essentials_build-www.gyan.dev Copyright (c) 2000-2025 the FFmpeg developers
2/16/2026 5:42:37 PM:   built with gcc 15.2.0 (Rev8, Built by MSYS2 project)
2/16/2026 5:42:37 PM:   configuration: --enable-gpl --enable-version3 --enable-static --disable-w32threads --disable-autodetect --enable-fontconfig --enable-iconv --enable-gnutls --enable-libxml2 --enable-gmp --enable-bzlib --enable-lzma --enable-zlib --enable-libsrt --enable-libssh --enable-libzmq --enable-avisynth --enable-sdl2 --enable-libwebp --enable-libx264 --enable-libx265 --enable-libxvid --enable-libaom --enable-libopenjpeg --enable-libvpx --enable-mediafoundation --enable-libass --enable-libfreetype --enable-libfribidi --enable-libharfbuzz --enable-libvidstab --enable-libvmaf --enable-libzimg --enable-amf --enable-cuda-llvm --enable-cuvid --enable-dxva2 --enable-d3d11va --enable-d3d12va --enable-ffnvcodec --enable-libvpl --enable-nvdec --enable-nvenc --enable-vaapi --enable-openal --enable-libgme --enable-libopenmpt --enable-libopencore-amrwb --enable-libmp3lame --enable-libtheora --enable-libvo-amrwbenc --enable-libgsm --enable-libopencore-amrnb --enable-libopus --enable-libspeex --enable-libvorbis --enable-librubberband
2/16/2026 5:42:37 PM:   libavutil      60.  8.100 / 60.  8.100
2/16/2026 5:42:37 PM:   libavcodec     62. 11.100 / 62. 11.100
2/16/2026 5:42:37 PM:   libavformat    62.  3.100 / 62.  3.100
2/16/2026 5:42:37 PM:   libavdevice    62.  1.100 / 62.  1.100
2/16/2026 5:42:37 PM:   libavfilter    11.  4.100 / 11.  4.100
2/16/2026 5:42:37 PM:   libswscale      9.  1.100 /  9.  1.100
2/16/2026 5:42:37 PM:   libswresample   6.  1.100 /  6.  1.100
2/16/2026 5:42:46 PM: Input #0, rtsp, from 'rtsp://10.246.146.197:8080/h264.sdp':
2/16/2026 5:42:46 PM:   Metadata:
2/16/2026 5:42:46 PM:     title           : IP Webcam
2/16/2026 5:42:46 PM:   Duration: N/A, start: 0.033333, bitrate: N/A
2/16/2026 5:42:46 PM:   Stream #0:0: Video: h264 (High), yuv420p(tv, progressive), 640x480, 30 fps, 30 tbr, 90k tbn, start 0.033333
2/16/2026 5:42:46 PM: Stream mapping:
2/16/2026 5:42:46 PM:   Stream #0:0 -> #0:0 (copy)
2/16/2026 5:42:46 PM: Output #0, hls, to 'E:\track\tectnical\MVC\projects\p7\Deedlock\Deadlock.UI\wwwroot\api\streams\4\index.m3u8':
2/16/2026 5:42:46 PM:   Metadata:
2/16/2026 5:42:46 PM:     title           : IP Webcam
2/16/2026 5:42:46 PM:     encoder         : Lavf62.3.100
2/16/2026 5:42:46 PM:   Stream #0:0: Video: h264 (High), yuv420p(tv, progressive), 640x480, q=2-31, 30 fps, 30 tbr, 90k tbn
2/16/2026 5:42:46 PM: Press [q] to stop, [?] for help
2/16/2026 5:42:46 PM: [hls @ 0000027d8629cac0] Timestamps are unset in a packet for stream 0. This is deprecated and will stop working in the future. Fix your code to set the timestamps properly
2/16/2026 5:42:46 PM: [vost#0:0/copy @ 0000027d8635e640] Non-monotonic DTS; previous: 0, current: 0; changing to 1. This may result in incorrect timestamps in the output file.
2/16/2026 5:42:47 PM: frame=   32 fps=0.0 q=-1.0 size=N/A time=00:00:01.03 bitrate=N/A speed=1.97x elapsed=0:00:00.52    
2/16/2026 5:42:47 PM: ffmpeg version 8.0.1-essentials_build-www.gyan.dev Copyright (c) 2000-2025 the FFmpeg developers
2/16/2026 5:42:47 PM:   built with gcc 15.2.0 (Rev8, Built by MSYS2 project)
2/16/2026 5:42:47 PM:   configuration: --enable-gpl --enable-version3 --enable-static --disable-w32threads --disable-autodetect --enable-fontconfig --enable-iconv --enable-gnutls --enable-libxml2 --enable-gmp --enable-bzlib --enable-lzma --enable-zlib --enable-libsrt --enable-libssh --enable-libzmq --enable-avisynth --enable-sdl2 --enable-libwebp --enable-libx264 --enable-libx265 --enable-libxvid --enable-libaom --enable-libopenjpeg --enable-libvpx --enable-mediafoundation --enable-libass --enable-libfreetype --enable-libfribidi --enable-libharfbuzz --enable-libvidstab --enable-libvmaf --enable-libzimg --enable-amf --enable-cuda-llvm --enable-cuvid --enable-dxva2 --enable-d3d11va --enable-d3d12va --enable-ffnvcodec --enable-libvpl --enable-nvdec --enable-nvenc --enable-vaapi --enable-openal --enable-libgme --enable-libopenmpt --enable-libopencore-amrwb --enable-libmp3lame --enable-libtheora --enable-libvo-amrwbenc --enable-libgsm --enable-libopencore-amrnb --enable-libopus --enable-libspeex --enable-libvorbis --enable-librubberband
2/16/2026 5:42:47 PM:   libavutil      60.  8.100 / 60.  8.100
2/16/2026 5:42:47 PM:   libavcodec     62. 11.100 / 62. 11.100
2/16/2026 5:42:47 PM:   libavformat    62.  3.100 / 62.  3.100
2/16/2026 5:42:47 PM:   libavdevice    62.  1.100 / 62.  1.100
2/16/2026 5:42:47 PM:   libavfilter    11.  4.100 / 11.  4.100
2/16/2026 5:42:47 PM:   libswscale      9.  1.100 /  9.  1.100
2/16/2026 5:42:47 PM:   libswresample   6.  1.100 /  6.  1.100
2/16/2026 5:42:57 PM: ffmpeg version 8.0.1-essentials_build-www.gyan.dev Copyright (c) 2000-2025 the FFmpeg developers
2/16/2026 5:42:57 PM:   built with gcc 15.2.0 (Rev8, Built by MSYS2 project)
2/16/2026 5:42:57 PM:   configuration: --enable-gpl --enable-version3 --enable-static --disable-w32threads --disable-autodetect --enable-fontconfig --enable-iconv --enable-gnutls --enable-libxml2 --enable-gmp --enable-bzlib --enable-lzma --enable-zlib --enable-libsrt --enable-libssh --enable-libzmq --enable-avisynth --enable-sdl2 --enable-libwebp --enable-libx264 --enable-libx265 --enable-libxvid --enable-libaom --enable-libopenjpeg --enable-libvpx --enable-mediafoundation --enable-libass --enable-libfreetype --enable-libfribidi --enable-libharfbuzz --enable-libvidstab --enable-libvmaf --enable-libzimg --enable-amf --enable-cuda-llvm --enable-cuvid --enable-dxva2 --enable-d3d11va --enable-d3d12va --enable-ffnvcodec --enable-libvpl --enable-nvdec --enable-nvenc --enable-vaapi --enable-openal --enable-libgme --enable-libopenmpt --enable-libopencore-amrwb --enable-libmp3lame --enable-libtheora --enable-libvo-amrwbenc --enable-libgsm --enable-libopencore-amrnb --enable-libopus --enable-libspeex --enable-libvorbis --enable-librubberband
2/16/2026 5:42:57 PM:   libavutil      60.  8.100 / 60.  8.100
2/16/2026 5:42:57 PM:   libavcodec     62. 11.100 / 62. 11.100
2/16/2026 5:42:57 PM:   libavformat    62.  3.100 / 62.  3.100
2/16/2026 5:42:57 PM:   libavdevice    62.  1.100 / 62.  1.100
2/16/2026 5:42:57 PM:   libavfilter    11.  4.100 / 11.  4.100
2/16/2026 5:42:57 PM:   libswscale      9.  1.100 /  9.  1.100
2/16/2026 5:42:57 PM:   libswresample   6.  1.100 /  6.  1.100
2/16/2026 5:43:07 PM: ffmpeg version 8.0.1-essentials_build-www.gyan.dev Copyright (c) 2000-2025 the FFmpeg developers
2/16/2026 5:43:07 PM:   built with gcc 15.2.0 (Rev8, Built by MSYS2 project)
2/16/2026 5:43:07 PM:   configuration: --enable-gpl --enable-version3 --enable-static --disable-w32threads --disable-autodetect --enable-fontconfig --enable-iconv --enable-gnutls --enable-libxml2 --enable-gmp --enable-bzlib --enable-lzma --enable-zlib --enable-libsrt --enable-libssh --enable-libzmq --enable-avisynth --enable-sdl2 --enable-libwebp --enable-libx264 --enable-libx265 --enable-libxvid --enable-libaom --enable-libopenjpeg --enable-libvpx --enable-mediafoundation --enable-libass --enable-libfreetype --enable-libfribidi --enable-libharfbuzz --enable-libvidstab --enable-libvmaf --enable-libzimg --enable-amf --enable-cuda-llvm --enable-cuvid --enable-dxva2 --enable-d3d11va --enable-d3d12va --enable-ffnvcodec --enable-libvpl --enable-nvdec --enable-nvenc --enable-vaapi --enable-openal --enable-libgme --enable-libopenmpt --enable-libopencore-amrwb --enable-libmp3lame --enable-libtheora --enable-libvo-amrwbenc --enable-libgsm --enable-libopencore-amrnb --enable-libopus --enable-libspeex --enable-libvorbis --enable-librubberband
2/16/2026 5:43:07 PM:   libavutil      60.  8.100 / 60.  8.100
2/16/2026 5:43:07 PM:   libavcodec     62. 11.100 / 62. 11.100
2/16/2026 5:43:07 PM:   libavformat    62.  3.100 / 62.  3.100
2/16/2026 5:43:07 PM:   libavdevice    62.  1.100 / 62.  1.100
2/16/2026 5:43:07 PM:   libavfilter    11.  4.100 / 11.  4.100
2/16/2026 5:43:07 PM:   libswscale      9.  1.100 /  9.  1.100
2/16/2026 5:43:07 PM:   libswresample   6.  1.100 /  6.  1.100
2/16/2026 5:43:17 PM: ffmpeg version 8.0.1-essentials_build-www.gyan.dev Copyright (c) 2000-2025 the FFmpeg developers
2/16/2026 5:43:17 PM:   built with gcc 15.2.0 (Rev8, Built by MSYS2 project)
2/16/2026 5:43:17 PM:   configuration: --enable-gpl --enable-version3 --enable-static --disable-w32threads --disable-autodetect --enable-fontconfig --enable-iconv --enable-gnutls --enable-libxml2 --enable-gmp --enable-bzlib --enable-lzma --enable-zlib --enable-libsrt --enable-libssh --enable-libzmq --enable-avisynth --enable-sdl2 --enable-libwebp --enable-libx264 --enable-libx265 --enable-libxvid --enable-libaom --enable-libopenjpeg --enable-libvpx --enable-mediafoundation --enable-libass --enable-libfreetype --enable-libfribidi --enable-libharfbuzz --enable-libvidstab --enable-libvmaf --enable-libzimg --enable-amf --enable-cuda-llvm --enable-cuvid --enable-dxva2 --enable-d3d11va --enable-d3d12va --enable-ffnvcodec --enable-libvpl --enable-nvdec --enable-nvenc --enable-vaapi --enable-openal --enable-libgme --enable-libopenmpt --enable-libopencore-amrwb --enable-libmp3lame --enable-libtheora --enable-libvo-amrwbenc --enable-libgsm --enable-libopencore-amrnb --enable-libopus --enable-libspeex --enable-libvorbis --enable-librubberband
2/16/2026 5:43:17 PM:   libavutil      60.  8.100 / 60.  8.100
2/16/2026 5:43:17 PM:   libavcodec     62. 11.100 / 62. 11.100
2/16/2026 5:43:17 PM:   libavformat    62.  3.100 / 62.  3.100
2/16/2026 5:43:17 PM:   libavdevice    62.  1.100 / 62.  1.100
2/16/2026 5:43:17 PM:   libavfilter    11.  4.100 / 11.  4.100
2/16/2026 5:43:17 PM:   libswscale      9.  1.100 /  9.  1.100
2/16/2026 5:43:17 PM:   libswresample   6.  1.100 /  6.  1.100
2/16/2026 5:43:27 PM: ffmpeg version 8.0.1-essentials_build-www.gyan.dev Copyright (c) 2000-2025 the FFmpeg developers
2/16/2026 5:43:27 PM:   built with gcc 15.2.0 (Rev8, Built by MSYS2 project)
2/16/2026 5:43:27 PM:   configuration: --enable-gpl --enable-version3 --enable-static --disable-w32threads --disable-autodetect --enable-fontconfig --enable-iconv --enable-gnutls --enable-libxml2 --enable-gmp --enable-bzlib --enable-lzma --enable-zlib --enable-libsrt --enable-libssh --enable-libzmq --enable-avisynth --enable-sdl2 --enable-libwebp --enable-libx264 --enable-libx265 --enable-libxvid --enable-libaom --enable-libopenjpeg --enable-libvpx --enable-mediafoundation --enable-libass --enable-libfreetype --enable-libfribidi --enable-libharfbuzz --enable-libvidstab --enable-libvmaf --enable-libzimg --enable-amf --enable-cuda-llvm --enable-cuvid --enable-dxva2 --enable-d3d11va --enable-d3d12va --enable-ffnvcodec --enable-libvpl --enable-nvdec --enable-nvenc --enable-vaapi --enable-openal --enable-libgme --enable-libopenmpt --enable-libopencore-amrwb --enable-libmp3lame --enable-libtheora --enable-libvo-amrwbenc --enable-libgsm --enable-libopencore-amrnb --enable-libopus --enable-libspeex --enable-libvorbis --enable-librubberband
2/16/2026 5:43:27 PM:   libavutil      60.  8.100 / 60.  8.100
2/16/2026 5:43:27 PM:   libavcodec     62. 11.100 / 62. 11.100
2/16/2026 5:43:27 PM:   libavformat    62.  3.100 / 62.  3.100
2/16/2026 5:43:27 PM:   libavdevice    62.  1.100 / 62.  1.100
2/16/2026 5:43:27 PM:   libavfilter    11.  4.100 / 11.  4.100
2/16/2026 5:43:27 PM:   libswscale      9.  1.100 /  9.  1.100
2/16/2026 5:43:27 PM:   libswresample   6.  1.100 /  6.  1.100
2/16/2026 5:43:37 PM: ffmpeg version 8.0.1-essentials_build-www.gyan.dev Copyright (c) 2000-2025 the FFmpeg developers
2/16/2026 5:43:37 PM:   built with gcc 15.2.0 (Rev8, Built by MSYS2 project)
2/16/2026 5:43:37 PM:   configuration: --enable-gpl --enable-version3 --enable-static --disable-w32threads --disable-autodetect --enable-fontconfig --enable-iconv --enable-gnutls --enable-libxml2 --enable-gmp --enable-bzlib --enable-lzma --enable-zlib --enable-libsrt --enable-libssh --enable-libzmq --enable-avisynth --enable-sdl2 --enable-libwebp --enable-libx264 --enable-libx265 --enable-libxvid --enable-libaom --enable-libopenjpeg --enable-libvpx --enable-mediafoundation --enable-libass --enable-libfreetype --enable-libfribidi --enable-libharfbuzz --enable-libvidstab --enable-libvmaf --enable-libzimg --enable-amf --enable-cuda-llvm --enable-cuvid --enable-dxva2 --enable-d3d11va --enable-d3d12va --enable-ffnvcodec --enable-libvpl --enable-nvdec --enable-nvenc --enable-vaapi --enable-openal --enable-libgme --enable-libopenmpt --enable-libopencore-amrwb --enable-libmp3lame --enable-libtheora --enable-libvo-amrwbenc --enable-libgsm --enable-libopencore-amrnb --enable-libopus --enable-libspeex --enable-libvorbis --enable-librubberband
2/16/2026 5:43:37 PM:   libavutil      60.  8.100 / 60.  8.100
2/16/2026 5:43:37 PM:   libavcodec     62. 11.100 / 62. 11.100
2/16/2026 5:43:37 PM:   libavformat    62.  3.100 / 62.  3.100
2/16/2026 5:43:37 PM:   libavdevice    62.  1.100 / 62.  1.100
2/16/2026 5:43:37 PM:   libavfilter    11.  4.100 / 11.  4.100
2/16/2026 5:43:37 PM:   libswscale      9.  1.100 /  9.  1.100
2/16/2026 5:43:37 PM:   libswresample   6.  1.100 /  6.  1.100
2/16/2026 5:43:47 PM: ffmpeg version 8.0.1-essentials_build-www.gyan.dev Copyright (c) 2000-2025 the FFmpeg developers
2/16/2026 5:43:47 PM:   built with gcc 15.2.0 (Rev8, Built by MSYS2 project)
2/16/2026 5:43:47 PM:   configuration: --enable-gpl --enable-version3 --enable-static --disable-w32threads --disable-autodetect --enable-fontconfig --enable-iconv --enable-gnutls --enable-libxml2 --enable-gmp --enable-bzlib --enable-lzma --enable-zlib --enable-libsrt --enable-libssh --enable-libzmq --enable-avisynth --enable-sdl2 --enable-libwebp --enable-libx264 --enable-libx265 --enable-libxvid --enable-libaom --enable-libopenjpeg --enable-libvpx --enable-mediafoundation --enable-libass --enable-libfreetype --enable-libfribidi --enable-libharfbuzz --enable-libvidstab --enable-libvmaf --enable-libzimg --enable-amf --enable-cuda-llvm --enable-cuvid --enable-dxva2 --enable-d3d11va --enable-d3d12va --enable-ffnvcodec --enable-libvpl --enable-nvdec --enable-nvenc --enable-vaapi --enable-openal --enable-libgme --enable-libopenmpt --enable-libopencore-amrwb --enable-libmp3lame --enable-libtheora --enable-libvo-amrwbenc --enable-libgsm --enable-libopencore-amrnb --enable-libopus --enable-libspeex --enable-libvorbis --enable-librubberband
2/16/2026 5:43:47 PM:   libavutil      60.  8.100 / 60.  8.100
2/16/2026 5:43:47 PM:   libavcodec     62. 11.100 / 62. 11.100
2/16/2026 5:43:47 PM:   libavformat    62.  3.100 / 62.  3.100
2/16/2026 5:43:47 PM:   libavdevice    62.  1.100 / 62.  1.100
2/16/2026 5:43:47 PM:   libavfilter    11.  4.100 / 11.  4.100
2/16/2026 5:43:47 PM:   libswscale      9.  1.100 /  9.  1.100
2/16/2026 5:43:47 PM:   libswresample   6.  1.100 /  6.  1.100
2/16/2026 5:43:57 PM: ffmpeg version 8.0.1-essentials_build-www.gyan.dev Copyright (c) 2000-2025 the FFmpeg developers
2/16/2026 5:43:57 PM:   built with gcc 15.2.0 (Rev8, Built by MSYS2 project)
2/16/2026 5:43:57 PM:   configuration: --enable-gpl --enable-version3 --enable-static --disable-w32threads --disable-autodetect --enable-fontconfig --enable-iconv --enable-gnutls --enable-libxml2 --enable-gmp --enable-bzlib --enable-lzma --enable-zlib --enable-libsrt --enable-libssh --enable-libzmq --enable-avisynth --enable-sdl2 --enable-libwebp --enable-libx264 --enable-libx265 --enable-libxvid --enable-libaom --enable-libopenjpeg --enable-libvpx --enable-mediafoundation --enable-libass --enable-libfreetype --enable-libfribidi --enable-libharfbuzz --enable-libvidstab --enable-libvmaf --enable-libzimg --enable-amf --enable-cuda-llvm --enable-cuvid --enable-dxva2 --enable-d3d11va --enable-d3d12va --enable-ffnvcodec --enable-libvpl --enable-nvdec --enable-nvenc --enable-vaapi --enable-openal --enable-libgme --enable-libopenmpt --enable-libopencore-amrwb --enable-libmp3lame --enable-libtheora --enable-libvo-amrwbenc --enable-libgsm --enable-libopencore-amrnb --enable-libopus --enable-libspeex --enable-libvorbis --enable-librubberband
2/16/2026 5:43:57 PM:   libavutil      60.  8.100 / 60.  8.100
2/16/2026 5:43:57 PM:   libavcodec     62. 11.100 / 62. 11.100
2/16/2026 5:43:57 PM:   libavformat    62.  3.100 / 62.  3.100
2/16/2026 5:43:57 PM:   libavdevice    62.  1.100 / 62.  1.100
2/16/2026 5:43:57 PM:   libavfilter    11.  4.100 / 11.  4.100
2/16/2026 5:43:57 PM:   libswscale      9.  1.100 /  9.  1.100
2/16/2026 5:43:57 PM:   libswresample   6.  1.100 /  6.  1.100
2/16/2026 5:44:08 PM: ffmpeg version 8.0.1-essentials_build-www.gyan.dev Copyright (c) 2000-2025 the FFmpeg developers
2/16/2026 5:44:08 PM:   built with gcc 15.2.0 (Rev8, Built by MSYS2 project)
2/16/2026 5:44:08 PM:   configuration: --enable-gpl --enable-version3 --enable-static --disable-w32threads --disable-autodetect --enable-fontconfig --enable-iconv --enable-gnutls --enable-libxml2 --enable-gmp --enable-bzlib --enable-lzma --enable-zlib --enable-libsrt --enable-libssh --enable-libzmq --enable-avisynth --enable-sdl2 --enable-libwebp --enable-libx264 --enable-libx265 --enable-libxvid --enable-libaom --enable-libopenjpeg --enable-libvpx --enable-mediafoundation --enable-libass --enable-libfreetype --enable-libfribidi --enable-libharfbuzz --enable-libvidstab --enable-libvmaf --enable-libzimg --enable-amf --enable-cuda-llvm --enable-cuvid --enable-dxva2 --enable-d3d11va --enable-d3d12va --enable-ffnvcodec --enable-libvpl --enable-nvdec --enable-nvenc --enable-vaapi --enable-openal --enable-libgme --enable-libopenmpt --enable-libopencore-amrwb --enable-libmp3lame --enable-libtheora --enable-libvo-amrwbenc --enable-libgsm --enable-libopencore-amrnb --enable-libopus --enable-libspeex --enable-libvorbis --enable-librubberband
2/16/2026 5:44:08 PM:   libavutil      60.  8.100 / 60.  8.100
2/16/2026 5:44:08 PM:   libavcodec     62. 11.100 / 62. 11.100
2/16/2026 5:44:08 PM:   libavformat    62.  3.100 / 62.  3.100
2/16/2026 5:44:08 PM:   libavdevice    62.  1.100 / 62.  1.100
2/16/2026 5:44:08 PM:   libavfilter    11.  4.100 / 11.  4.100
2/16/2026 5:44:08 PM:   libswscale      9.  1.100 /  9.  1.100
2/16/2026 5:44:08 PM:   libswresample   6.  1.100 /  6.  1.100
2/16/2026 5:44:18 PM: ffmpeg version 8.0.1-essentials_build-www.gyan.dev Copyright (c) 2000-2025 the FFmpeg developers
2/16/2026 5:44:18 PM:   built with gcc 15.2.0 (Rev8, Built by MSYS2 project)
2/16/2026 5:44:18 PM:   configuration: --enable-gpl --enable-version3 --enable-static --disable-w32threads --disable-autodetect --enable-fontconfig --enable-iconv --enable-gnutls --enable-libxml2 --enable-gmp --enable-bzlib --enable-lzma --enable-zlib --enable-libsrt --enable-libssh --enable-libzmq --enable-avisynth --enable-sdl2 --enable-libwebp --enable-libx264 --enable-libx265 --enable-libxvid --enable-libaom --enable-libopenjpeg --enable-libvpx --enable-mediafoundation --enable-libass --enable-libfreetype --enable-libfribidi --enable-libharfbuzz --enable-libvidstab --enable-libvmaf --enable-libzimg --enable-amf --enable-cuda-llvm --enable-cuvid --enable-dxva2 --enable-d3d11va --enable-d3d12va --enable-ffnvcodec --enable-libvpl --enable-nvdec --enable-nvenc --enable-vaapi --enable-openal --enable-libgme --enable-libopenmpt --enable-libopencore-amrwb --enable-libmp3lame --enable-libtheora --enable-libvo-amrwbenc --enable-libgsm --enable-libopencore-amrnb --enable-libopus --enable-libspeex --enable-libvorbis --enable-librubberband
2/16/2026 5:44:18 PM:   libavutil      60.  8.100 / 60.  8.100
2/16/2026 5:44:18 PM:   libavcodec     62. 11.100 / 62. 11.100
2/16/2026 5:44:18 PM:   libavformat    62.  3.100 / 62.  3.100
2/16/2026 5:44:18 PM:   libavdevice    62.  1.100 / 62.  1.100
2/16/2026 5:44:18 PM:   libavfilter    11.  4.100 / 11.  4.100
2/16/2026 5:44:18 PM:   libswscale      9.  1.100 /  9.  1.100
2/16/2026 5:44:18 PM:   libswresample   6.  1.100 /  6.  1.100
2/16/2026 5:44:28 PM: ffmpeg version 8.0.1-essentials_build-www.gyan.dev Copyright (c) 2000-2025 the FFmpeg developers
2/16/2026 5:44:28 PM:   built with gcc 15.2.0 (Rev8, Built by MSYS2 project)
2/16/2026 5:44:28 PM:   configuration: --enable-gpl --enable-version3 --enable-static --disable-w32threads --disable-autodetect --enable-fontconfig --enable-iconv --enable-gnutls --enable-libxml2 --enable-gmp --enable-bzlib --enable-lzma --enable-zlib --enable-libsrt --enable-libssh --enable-libzmq --enable-avisynth --enable-sdl2 --enable-libwebp --enable-libx264 --enable-libx265 --enable-libxvid --enable-libaom --enable-libopenjpeg --enable-libvpx --enable-mediafoundation --enable-libass --enable-libfreetype --enable-libfribidi --enable-libharfbuzz --enable-libvidstab --enable-libvmaf --enable-libzimg --enable-amf --enable-cuda-llvm --enable-cuvid --enable-dxva2 --enable-d3d11va --enable-d3d12va --enable-ffnvcodec --enable-libvpl --enable-nvdec --enable-nvenc --enable-vaapi --enable-openal --enable-libgme --enable-libopenmpt --enable-libopencore-amrwb --enable-libmp3lame --enable-libtheora --enable-libvo-amrwbenc --enable-libgsm --enable-libopencore-amrnb --enable-libopus --enable-libspeex --enable-libvorbis --enable-librubberband
2/16/2026 5:44:28 PM:   libavutil      60.  8.100 / 60.  8.100
2/16/2026 5:44:28 PM:   libavcodec     62. 11.100 / 62. 11.100
2/16/2026 5:44:28 PM:   libavformat    62.  3.100 / 62.  3.100
2/16/2026 5:44:28 PM:   libavdevice    62.  1.100 / 62.  1.100
2/16/2026 5:44:28 PM:   libavfilter    11.  4.100 / 11.  4.100
2/16/2026 5:44:28 PM:   libswscale      9.  1.100 /  9.  1.100
2/16/2026 5:44:28 PM:   libswresample   6.  1.100 /  6.  1.100
2/16/2026 5:44:38 PM: ffmpeg version 8.0.1-essentials_build-www.gyan.dev Copyright (c) 2000-2025 the FFmpeg developers
2/16/2026 5:44:38 PM:   built with gcc 15.2.0 (Rev8, Built by MSYS2 project)
2/16/2026 5:44:38 PM:   configuration: --enable-gpl --enable-version3 --enable-static --disable-w32threads --disable-autodetect --enable-fontconfig --enable-iconv --enable-gnutls --enable-libxml2 --enable-gmp --enable-bzlib --enable-lzma --enable-zlib --enable-libsrt --enable-libssh --enable-libzmq --enable-avisynth --enable-sdl2 --enable-libwebp --enable-libx264 --enable-libx265 --enable-libxvid --enable-libaom --enable-libopenjpeg --enable-libvpx --enable-mediafoundation --enable-libass --enable-libfreetype --enable-libfribidi --enable-libharfbuzz --enable-libvidstab --enable-libvmaf --enable-libzimg --enable-amf --enable-cuda-llvm --enable-cuvid --enable-dxva2 --enable-d3d11va --enable-d3d12va --enable-ffnvcodec --enable-libvpl --enable-nvdec --enable-nvenc --enable-vaapi --enable-openal --enable-libgme --enable-libopenmpt --enable-libopencore-amrwb --enable-libmp3lame --enable-libtheora --enable-libvo-amrwbenc --enable-libgsm --enable-libopencore-amrnb --enable-libopus --enable-libspeex --enable-libvorbis --enable-librubberband
2/16/2026 5:44:38 PM:   libavutil      60.  8.100 / 60.  8.100
2/16/2026 5:44:38 PM:   libavcodec     62. 11.100 / 62. 11.100
2/16/2026 5:44:38 PM:   libavformat    62.  3.100 / 62.  3.100
2/16/2026 5:44:38 PM:   libavdevice    62.  1.100 / 62.  1.100
2/16/2026 5:44:38 PM:   libavfilter    11.  4.100 / 11.  4.100
2/16/2026 5:44:38 PM:   libswscale      9.  1.100 /  9.  1.100
2/16/2026 5:44:38 PM:   libswresample   6.  1.100 /  6.  1.100
2/16/2026 5:44:48 PM: ffmpeg version 8.0.1-essentials_build-www.gyan.dev Copyright (c) 2000-2025 the FFmpeg developers
2/16/2026 5:44:48 PM:   built with gcc 15.2.0 (Rev8, Built by MSYS2 project)
2/16/2026 5:44:48 PM:   configuration: --enable-gpl --enable-version3 --enable-static --disable-w32threads --disable-autodetect --enable-fontconfig --enable-iconv --enable-gnutls --enable-libxml2 --enable-gmp --enable-bzlib --enable-lzma --enable-zlib --enable-libsrt --enable-libssh --enable-libzmq --enable-avisynth --enable-sdl2 --enable-libwebp --enable-libx264 --enable-libx265 --enable-libxvid --enable-libaom --enable-libopenjpeg --enable-libvpx --enable-mediafoundation --enable-libass --enable-libfreetype --enable-libfribidi --enable-libharfbuzz --enable-libvidstab --enable-libvmaf --enable-libzimg --enable-amf --enable-cuda-llvm --enable-cuvid --enable-dxva2 --enable-d3d11va --enable-d3d12va --enable-ffnvcodec --enable-libvpl --enable-nvdec --enable-nvenc --enable-vaapi --enable-openal --enable-libgme --enable-libopenmpt --enable-libopencore-amrwb --enable-libmp3lame --enable-libtheora --enable-libvo-amrwbenc --enable-libgsm --enable-libopencore-amrnb --enable-libopus --enable-libspeex --enable-libvorbis --enable-librubberband
2/16/2026 5:44:48 PM:   libavutil      60.  8.100 / 60.  8.100
2/16/2026 5:44:48 PM:   libavcodec     62. 11.100 / 62. 11.100
2/16/2026 5:44:48 PM:   libavformat    62.  3.100 / 62.  3.100
2/16/2026 5:44:48 PM:   libavdevice    62.  1.100 / 62.  1.100
2/16/2026 5:44:48 PM:   libavfilter    11.  4.100 / 11.  4.100
2/16/2026 5:44:48 PM:   libswscale      9.  1.100 /  9.  1.100
2/16/2026 5:44:48 PM:   libswresample   6.  1.100 /  6.  1.100
2/16/2026 5:44:58 PM: ffmpeg version 8.0.1-essentials_build-www.gyan.dev Copyright (c) 2000-2025 the FFmpeg developers
2/16/2026 5:44:58 PM:   built with gcc 15.2.0 (Rev8, Built by MSYS2 project)
2/16/2026 5:44:58 PM:   configuration: --enable-gpl --enable-version3 --enable-static --disable-w32threads --disable-autodetect --enable-fontconfig --enable-iconv --enable-gnutls --enable-libxml2 --enable-gmp --enable-bzlib --enable-lzma --enable-zlib --enable-libsrt --enable-libssh --enable-libzmq --enable-avisynth --enable-sdl2 --enable-libwebp --enable-libx264 --enable-libx265 --enable-libxvid --enable-libaom --enable-libopenjpeg --enable-libvpx --enable-mediafoundation --enable-libass --enable-libfreetype --enable-libfribidi --enable-libharfbuzz --enable-libvidstab --enable-libvmaf --enable-libzimg --enable-amf --enable-cuda-llvm --enable-cuvid --enable-dxva2 --enable-d3d11va --enable-d3d12va --enable-ffnvcodec --enable-libvpl --enable-nvdec --enable-nvenc --enable-vaapi --enable-openal --enable-libgme --enable-libopenmpt --enable-libopencore-amrwb --enable-libmp3lame --enable-libtheora --enable-libvo-amrwbenc --enable-libgsm --enable-libopencore-amrnb --enable-libopus --enable-libspeex --enable-libvorbis --enable-librubberband
2/16/2026 5:44:58 PM:   libavutil      60.  8.100 / 60.  8.100
2/16/2026 5:44:58 PM:   libavcodec     62. 11.100 / 62. 11.100
2/16/2026 5:44:58 PM:   libavformat    62.  3.100 / 62.  3.100
2/16/2026 5:44:58 PM:   libavdevice    62.  1.100 / 62.  1.100
2/16/2026 5:44:58 PM:   libavfilter    11.  4.100 / 11.  4.100
2/16/2026 5:44:58 PM:   libswscale      9.  1.100 /  9.  1.100
2/16/2026 5:44:58 PM:   libswresample   6.  1.100 /  6.  1.100
2/16/2026 5:45:08 PM: ffmpeg version 8.0.1-essentials_build-www.gyan.dev Copyright (c) 2000-2025 the FFmpeg developers
2/16/2026 5:45:08 PM:   built with gcc 15.2.0 (Rev8, Built by MSYS2 project)
2/16/2026 5:45:08 PM:   configuration: --enable-gpl --enable-version3 --enable-static --disable-w32threads --disable-autodetect --enable-fontconfig --enable-iconv --enable-gnutls --enable-libxml2 --enable-gmp --enable-bzlib --enable-lzma --enable-zlib --enable-libsrt --enable-libssh --enable-libzmq --enable-avisynth --enable-sdl2 --enable-libwebp --enable-libx264 --enable-libx265 --enable-libxvid --enable-libaom --enable-libopenjpeg --enable-libvpx --enable-mediafoundation --enable-libass --enable-libfreetype --enable-libfribidi --enable-libharfbuzz --enable-libvidstab --enable-libvmaf --enable-libzimg --enable-amf --enable-cuda-llvm --enable-cuvid --enable-dxva2 --enable-d3d11va --enable-d3d12va --enable-ffnvcodec --enable-libvpl --enable-nvdec --enable-nvenc --enable-vaapi --enable-openal --enable-libgme --enable-libopenmpt --enable-libopencore-amrwb --enable-libmp3lame --enable-libtheora --enable-libvo-amrwbenc --enable-libgsm --enable-libopencore-amrnb --enable-libopus --enable-libspeex --enable-libvorbis --enable-librubberband
2/16/2026 5:45:08 PM:   libavutil      60.  8.100 / 60.  8.100
2/16/2026 5:45:08 PM:   libavcodec     62. 11.100 / 62. 11.100
2/16/2026 5:45:08 PM:   libavformat    62.  3.100 / 62.  3.100
2/16/2026 5:45:08 PM:   libavdevice    62.  1.100 / 62.  1.100
2/16/2026 5:45:08 PM:   libavfilter    11.  4.100 / 11.  4.100
2/16/2026 5:45:08 PM:   libswscale      9.  1.100 /  9.  1.100
2/16/2026 5:45:08 PM:   libswresample   6.  1.100 /  6.  1.100
2/16/2026 5:45:18 PM: ffmpeg version 8.0.1-essentials_build-www.gyan.dev Copyright (c) 2000-2025 the FFmpeg developers
2/16/2026 5:45:18 PM:   built with gcc 15.2.0 (Rev8, Built by MSYS2 project)
2/16/2026 5:45:18 PM:   configuration: --enable-gpl --enable-version3 --enable-static --disable-w32threads --disable-autodetect --enable-fontconfig --enable-iconv --enable-gnutls --enable-libxml2 --enable-gmp --enable-bzlib --enable-lzma --enable-zlib --enable-libsrt --enable-libssh --enable-libzmq --enable-avisynth --enable-sdl2 --enable-libwebp --enable-libx264 --enable-libx265 --enable-libxvid --enable-libaom --enable-libopenjpeg --enable-libvpx --enable-mediafoundation --enable-libass --enable-libfreetype --enable-libfribidi --enable-libharfbuzz --enable-libvidstab --enable-libvmaf --enable-libzimg --enable-amf --enable-cuda-llvm --enable-cuvid --enable-dxva2 --enable-d3d11va --enable-d3d12va --enable-ffnvcodec --enable-libvpl --enable-nvdec --enable-nvenc --enable-vaapi --enable-openal --enable-libgme --enable-libopenmpt --enable-libopencore-amrwb --enable-libmp3lame --enable-libtheora --enable-libvo-amrwbenc --enable-libgsm --enable-libopencore-amrnb --enable-libopus --enable-libspeex --enable-libvorbis --enable-librubberband
2/16/2026 5:45:18 PM:   libavutil      60.  8.100 / 60.  8.100
2/16/2026 5:45:18 PM:   libavcodec     62. 11.100 / 62. 11.100
2/16/2026 5:45:18 PM:   libavformat    62.  3.100 / 62.  3.100
2/16/2026 5:45:18 PM:   libavdevice    62.  1.100 / 62.  1.100
2/16/2026 5:45:18 PM:   libavfilter    11.  4.100 / 11.  4.100
2/16/2026 5:45:18 PM:   libswscale      9.  1.100 /  9.  1.100
2/16/2026 5:45:18 PM:   libswresample   6.  1.100 /  6.  1.100
2/16/2026 5:45:28 PM: ffmpeg version 8.0.1-essentials_build-www.gyan.dev Copyright (c) 2000-2025 the FFmpeg developers
2/16/2026 5:45:28 PM:   built with gcc 15.2.0 (Rev8, Built by MSYS2 project)
2/16/2026 5:45:28 PM:   configuration: --enable-gpl --enable-version3 --enable-static --disable-w32threads --disable-autodetect --enable-fontconfig --enable-iconv --enable-gnutls --enable-libxml2 --enable-gmp --enable-bzlib --enable-lzma --enable-zlib --enable-libsrt --enable-libssh --enable-libzmq --enable-avisynth --enable-sdl2 --enable-libwebp --enable-libx264 --enable-libx265 --enable-libxvid --enable-libaom --enable-libopenjpeg --enable-libvpx --enable-mediafoundation --enable-libass --enable-libfreetype --enable-libfribidi --enable-libharfbuzz --enable-libvidstab --enable-libvmaf --enable-libzimg --enable-amf --enable-cuda-llvm --enable-cuvid --enable-dxva2 --enable-d3d11va --enable-d3d12va --enable-ffnvcodec --enable-libvpl --enable-nvdec --enable-nvenc --enable-vaapi --enable-openal --enable-libgme --enable-libopenmpt --enable-libopencore-amrwb --enable-libmp3lame --enable-libtheora --enable-libvo-amrwbenc --enable-libgsm --enable-libopencore-amrnb --enable-libopus --enable-libspeex --enable-libvorbis --enable-librubberband
2/16/2026 5:45:28 PM:   libavutil      60.  8.100 / 60.  8.100
2/16/2026 5:45:28 PM:   libavcodec     62. 11.100 / 62. 11.100
2/16/2026 5:45:28 PM:   libavformat    62.  3.100 / 62.  3.100
2/16/2026 5:45:28 PM:   libavdevice    62.  1.100 / 62.  1.100
2/16/2026 5:45:28 PM:   libavfilter    11.  4.100 / 11.  4.100
2/16/2026 5:45:28 PM:   libswscale      9.  1.100 /  9.  1.100
2/16/2026 5:45:28 PM:   libswresample   6.  1.100 /  6.  1.100
2/16/2026 5:45:48 PM: ffmpeg version 8.0.1-essentials_build-www.gyan.dev Copyright (c) 2000-2025 the FFmpeg developers
2/16/2026 5:45:48 PM:   built with gcc 15.2.0 (Rev8, Built by MSYS2 project)
2/16/2026 5:45:48 PM:   configuration: --enable-gpl --enable-version3 --enable-static --disable-w32threads --disable-autodetect --enable-fontconfig --enable-iconv --enable-gnutls --enable-libxml2 --enable-gmp --enable-bzlib --enable-lzma --enable-zlib --enable-libsrt --enable-libssh --enable-libzmq --enable-avisynth --enable-sdl2 --enable-libwebp --enable-libx264 --enable-libx265 --enable-libxvid --enable-libaom --enable-libopenjpeg --enable-libvpx --enable-mediafoundation --enable-libass --enable-libfreetype --enable-libfribidi --enable-libharfbuzz --enable-libvidstab --enable-libvmaf --enable-libzimg --enable-amf --enable-cuda-llvm --enable-cuvid --enable-dxva2 --enable-d3d11va --enable-d3d12va --enable-ffnvcodec --enable-libvpl --enable-nvdec --enable-nvenc --enable-vaapi --enable-openal --enable-libgme --enable-libopenmpt --enable-libopencore-amrwb --enable-libmp3lame --enable-libtheora --enable-libvo-amrwbenc --enable-libgsm --enable-libopencore-amrnb --enable-libopus --enable-libspeex --enable-libvorbis --enable-librubberband
2/16/2026 5:45:48 PM:   libavutil      60.  8.100 / 60.  8.100
2/16/2026 5:45:48 PM:   libavcodec     62. 11.100 / 62. 11.100
2/16/2026 5:45:48 PM:   libavformat    62.  3.100 / 62.  3.100
2/16/2026 5:45:48 PM:   libavdevice    62.  1.100 / 62.  1.100
2/16/2026 5:45:48 PM:   libavfilter    11.  4.100 / 11.  4.100
2/16/2026 5:45:48 PM:   libswscale      9.  1.100 /  9.  1.100
2/16/2026 5:45:48 PM:   libswresample   6.  1.100 /  6.  1.100
2/16/2026 5:45:58 PM: ffmpeg version 8.0.1-essentials_build-www.gyan.dev Copyright (c) 2000-2025 the FFmpeg developers
2/16/2026 5:45:58 PM:   built with gcc 15.2.0 (Rev8, Built by MSYS2 project)
2/16/2026 5:45:58 PM:   configuration: --enable-gpl --enable-version3 --enable-static --disable-w32threads --disable-autodetect --enable-fontconfig --enable-iconv --enable-gnutls --enable-libxml2 --enable-gmp --enable-bzlib --enable-lzma --enable-zlib --enable-libsrt --enable-libssh --enable-libzmq --enable-avisynth --enable-sdl2 --enable-libwebp --enable-libx264 --enable-libx265 --enable-libxvid --enable-libaom --enable-libopenjpeg --enable-libvpx --enable-mediafoundation --enable-libass --enable-libfreetype --enable-libfribidi --enable-libharfbuzz --enable-libvidstab --enable-libvmaf --enable-libzimg --enable-amf --enable-cuda-llvm --enable-cuvid --enable-dxva2 --enable-d3d11va --enable-d3d12va --enable-ffnvcodec --enable-libvpl --enable-nvdec --enable-nvenc --enable-vaapi --enable-openal --enable-libgme --enable-libopenmpt --enable-libopencore-amrwb --enable-libmp3lame --enable-libtheora --enable-libvo-amrwbenc --enable-libgsm --enable-libopencore-amrnb --enable-libopus --enable-libspeex --enable-libvorbis --enable-librubberband
2/16/2026 5:45:58 PM:   libavutil      60.  8.100 / 60.  8.100
2/16/2026 5:45:58 PM:   libavcodec     62. 11.100 / 62. 11.100
2/16/2026 5:45:58 PM:   libavformat    62.  3.100 / 62.  3.100
2/16/2026 5:45:58 PM:   libavdevice    62.  1.100 / 62.  1.100
2/16/2026 5:45:58 PM:   libavfilter    11.  4.100 / 11.  4.100
2/16/2026 5:45:58 PM:   libswscale      9.  1.100 /  9.  1.100
2/16/2026 5:45:58 PM:   libswresample   6.  1.100 /  6.  1.100
2/16/2026 5:46:09 PM: ffmpeg version 8.0.1-essentials_build-www.gyan.dev Copyright (c) 2000-2025 the FFmpeg developers
2/16/2026 5:46:09 PM:   built with gcc 15.2.0 (Rev8, Built by MSYS2 project)
2/16/2026 5:46:09 PM:   configuration: --enable-gpl --enable-version3 --enable-static --disable-w32threads --disable-autodetect --enable-fontconfig --enable-iconv --enable-gnutls --enable-libxml2 --enable-gmp --enable-bzlib --enable-lzma --enable-zlib --enable-libsrt --enable-libssh --enable-libzmq --enable-avisynth --enable-sdl2 --enable-libwebp --enable-libx264 --enable-libx265 --enable-libxvid --enable-libaom --enable-libopenjpeg --enable-libvpx --enable-mediafoundation --enable-libass --enable-libfreetype --enable-libfribidi --enable-libharfbuzz --enable-libvidstab --enable-libvmaf --enable-libzimg --enable-amf --enable-cuda-llvm --enable-cuvid --enable-dxva2 --enable-d3d11va --enable-d3d12va --enable-ffnvcodec --enable-libvpl --enable-nvdec --enable-nvenc --enable-vaapi --enable-openal --enable-libgme --enable-libopenmpt --enable-libopencore-amrwb --enable-libmp3lame --enable-libtheora --enable-libvo-amrwbenc --enable-libgsm --enable-libopencore-amrnb --enable-libopus --enable-libspeex --enable-libvorbis --enable-librubberband
2/16/2026 5:46:09 PM:   libavutil      60.  8.100 / 60.  8.100
2/16/2026 5:46:09 PM:   libavcodec     62. 11.100 / 62. 11.100
2/16/2026 5:46:09 PM:   libavformat    62.  3.100 / 62.  3.100
2/16/2026 5:46:09 PM:   libavdevice    62.  1.100 / 62.  1.100
2/16/2026 5:46:09 PM:   libavfilter    11.  4.100 / 11.  4.100
2/16/2026 5:46:09 PM:   libswscale      9.  1.100 /  9.  1.100
2/16/2026 5:46:09 PM:   libswresample   6.  1.100 /  6.  1.100
2/16/2026 5:46:14 PM: Input #0, rtsp, from 'rtsp://10.246.146.197:8080/h264.sdp':
2/16/2026 5:46:14 PM:   Metadata:
2/16/2026 5:46:14 PM:     title           : IP Webcam
2/16/2026 5:46:14 PM:   Duration: N/A, start: 0.033333, bitrate: N/A
2/16/2026 5:46:14 PM:   Stream #0:0: Video: h264 (High), yuv420p(tv, progressive), 640x480, 30 fps, 30 tbr, 90k tbn, start 0.033333
2/16/2026 5:46:14 PM: Stream mapping:
2/16/2026 5:46:14 PM:   Stream #0:0 -> #0:0 (copy)
2/16/2026 5:46:14 PM: Output #0, hls, to 'E:\track\tectnical\MVC\projects\p7\Deedlock\Deadlock.UI\wwwroot\api\streams\4\index.m3u8':
2/16/2026 5:46:14 PM:   Metadata:
2/16/2026 5:46:14 PM:     title           : IP Webcam
2/16/2026 5:46:14 PM:     encoder         : Lavf62.3.100
2/16/2026 5:46:14 PM:   Stream #0:0: Video: h264 (High), yuv420p(tv, progressive), 640x480, q=2-31, 30 fps, 30 tbr, 90k tbn
2/16/2026 5:46:14 PM: Press [q] to stop, [?] for help
2/16/2026 5:46:16 PM: frame=   31 fps=0.0 q=-1.0 size=N/A time=00:00:01.09 bitrate=N/A speed=2.15x elapsed=0:00:00.51    
2/16/2026 5:46:16 PM: frame=   32 fps= 31 q=-1.0 size=N/A time=00:00:01.13 bitrate=N/A speed= 1.1x elapsed=0:00:01.03    
2/16/2026 5:46:17 PM: frame=   36 fps= 23 q=-1.0 size=N/A time=00:00:01.26 bitrate=N/A speed=0.815x elapsed=0:00:01.55    
2/16/2026 5:46:17 PM: frame=   43 fps= 21 q=-1.0 size=N/A time=00:00:01.49 bitrate=N/A speed=0.722x elapsed=0:00:02.07    
2/16/2026 5:46:18 PM: frame=   47 fps= 18 q=-1.0 size=N/A time=00:00:01.63 bitrate=N/A speed=0.632x elapsed=0:00:02.58    
2/16/2026 5:46:18 PM: frame=   50 fps= 16 q=-1.0 size=N/A time=00:00:01.73 bitrate=N/A speed=0.559x elapsed=0:00:03.10    
2/16/2026 5:46:18 PM: frame=   52 fps= 14 q=-1.0 size=N/A time=00:00:01.79 bitrate=N/A speed=0.498x elapsed=0:00:03.61    
2/16/2026 5:46:19 PM: ffmpeg version 8.0.1-essentials_build-www.gyan.dev Copyright (c) 2000-2025 the FFmpeg developers
2/16/2026 5:46:19 PM:   built with gcc 15.2.0 (Rev8, Built by MSYS2 project)
2/16/2026 5:46:19 PM:   configuration: --enable-gpl --enable-version3 --enable-static --disable-w32threads --disable-autodetect --enable-fontconfig --enable-iconv --enable-gnutls --enable-libxml2 --enable-gmp --enable-bzlib --enable-lzma --enable-zlib --enable-libsrt --enable-libssh --enable-libzmq --enable-avisynth --enable-sdl2 --enable-libwebp --enable-libx264 --enable-libx265 --enable-libxvid --enable-libaom --enable-libopenjpeg --enable-libvpx --enable-mediafoundation --enable-libass --enable-libfreetype --enable-libfribidi --enable-libharfbuzz --enable-libvidstab --enable-libvmaf --enable-libzimg --enable-amf --enable-cuda-llvm --enable-cuvid --enable-dxva2 --enable-d3d11va --enable-d3d12va --enable-ffnvcodec --enable-libvpl --enable-nvdec --enable-nvenc --enable-vaapi --enable-openal --enable-libgme --enable-libopenmpt --enable-libopencore-amrwb --enable-libmp3lame --enable-libtheora --enable-libvo-amrwbenc --enable-libgsm --enable-libopencore-amrnb --enable-libopus --enable-libspeex --enable-libvorbis --enable-librubberband
2/16/2026 5:46:19 PM:   libavutil      60.  8.100 / 60.  8.100
2/16/2026 5:46:19 PM:   libavcodec     62. 11.100 / 62. 11.100
2/16/2026 5:46:19 PM:   libavformat    62.  3.100 / 62.  3.100
2/16/2026 5:46:19 PM:   libavdevice    62.  1.100 / 62.  1.100
2/16/2026 5:46:19 PM:   libavfilter    11.  4.100 / 11.  4.100
2/16/2026 5:46:19 PM:   libswscale      9.  1.100 /  9.  1.100
2/16/2026 5:46:19 PM:   libswresample   6.  1.100 /  6.  1.100
2/16/2026 5:46:29 PM: ffmpeg version 8.0.1-essentials_build-www.gyan.dev Copyright (c) 2000-2025 the FFmpeg developers
2/16/2026 5:46:29 PM:   built with gcc 15.2.0 (Rev8, Built by MSYS2 project)
2/16/2026 5:46:29 PM:   configuration: --enable-gpl --enable-version3 --enable-static --disable-w32threads --disable-autodetect --enable-fontconfig --enable-iconv --enable-gnutls --enable-libxml2 --enable-gmp --enable-bzlib --enable-lzma --enable-zlib --enable-libsrt --enable-libssh --enable-libzmq --enable-avisynth --enable-sdl2 --enable-libwebp --enable-libx264 --enable-libx265 --enable-libxvid --enable-libaom --enable-libopenjpeg --enable-libvpx --enable-mediafoundation --enable-libass --enable-libfreetype --enable-libfribidi --enable-libharfbuzz --enable-libvidstab --enable-libvmaf --enable-libzimg --enable-amf --enable-cuda-llvm --enable-cuvid --enable-dxva2 --enable-d3d11va --enable-d3d12va --enable-ffnvcodec --enable-libvpl --enable-nvdec --enable-nvenc --enable-vaapi --enable-openal --enable-libgme --enable-libopenmpt --enable-libopencore-amrwb --enable-libmp3lame --enable-libtheora --enable-libvo-amrwbenc --enable-libgsm --enable-libopencore-amrnb --enable-libopus --enable-libspeex --enable-libvorbis --enable-librubberband
2/16/2026 5:46:29 PM:   libavutil      60.  8.100 / 60.  8.100
2/16/2026 5:46:29 PM:   libavcodec     62. 11.100 / 62. 11.100
2/16/2026 5:46:29 PM:   libavformat    62.  3.100 / 62.  3.100
2/16/2026 5:46:29 PM:   libavdevice    62.  1.100 / 62.  1.100
2/16/2026 5:46:29 PM:   libavfilter    11.  4.100 / 11.  4.100
2/16/2026 5:46:29 PM:   libswscale      9.  1.100 /  9.  1.100
2/16/2026 5:46:29 PM:   libswresample   6.  1.100 /  6.  1.100
2/16/2026 5:46:39 PM: ffmpeg version 8.0.1-essentials_build-www.gyan.dev Copyright (c) 2000-2025 the FFmpeg developers
2/16/2026 5:46:39 PM:   built with gcc 15.2.0 (Rev8, Built by MSYS2 project)
2/16/2026 5:46:39 PM:   configuration: --enable-gpl --enable-version3 --enable-static --disable-w32threads --disable-autodetect --enable-fontconfig --enable-iconv --enable-gnutls --enable-libxml2 --enable-gmp --enable-bzlib --enable-lzma --enable-zlib --enable-libsrt --enable-libssh --enable-libzmq --enable-avisynth --enable-sdl2 --enable-libwebp --enable-libx264 --enable-libx265 --enable-libxvid --enable-libaom --enable-libopenjpeg --enable-libvpx --enable-mediafoundation --enable-libass --enable-libfreetype --enable-libfribidi --enable-libharfbuzz --enable-libvidstab --enable-libvmaf --enable-libzimg --enable-amf --enable-cuda-llvm --enable-cuvid --enable-dxva2 --enable-d3d11va --enable-d3d12va --enable-ffnvcodec --enable-libvpl --enable-nvdec --enable-nvenc --enable-vaapi --enable-openal --enable-libgme --enable-libopenmpt --enable-libopencore-amrwb --enable-libmp3lame --enable-libtheora --enable-libvo-amrwbenc --enable-libgsm --enable-libopencore-amrnb --enable-libopus --enable-libspeex --enable-libvorbis --enable-librubberband
2/16/2026 5:46:39 PM:   libavutil      60.  8.100 / 60.  8.100
2/16/2026 5:46:39 PM:   libavcodec     62. 11.100 / 62. 11.100
2/16/2026 5:46:39 PM:   libavformat    62.  3.100 / 62.  3.100
2/16/2026 5:46:39 PM:   libavdevice    62.  1.100 / 62.  1.100
2/16/2026 5:46:39 PM:   libavfilter    11.  4.100 / 11.  4.100
2/16/2026 5:46:39 PM:   libswscale      9.  1.100 /  9.  1.100
2/16/2026 5:46:39 PM:   libswresample   6.  1.100 /  6.  1.100
2/16/2026 5:46:49 PM: ffmpeg version 8.0.1-essentials_build-www.gyan.dev Copyright (c) 2000-2025 the FFmpeg developers
2/16/2026 5:46:49 PM:   built with gcc 15.2.0 (Rev8, Built by MSYS2 project)
2/16/2026 5:46:49 PM:   configuration: --enable-gpl --enable-version3 --enable-static --disable-w32threads --disable-autodetect --enable-fontconfig --enable-iconv --enable-gnutls --enable-libxml2 --enable-gmp --enable-bzlib --enable-lzma --enable-zlib --enable-libsrt --enable-libssh --enable-libzmq --enable-avisynth --enable-sdl2 --enable-libwebp --enable-libx264 --enable-libx265 --enable-libxvid --enable-libaom --enable-libopenjpeg --enable-libvpx --enable-mediafoundation --enable-libass --enable-libfreetype --enable-libfribidi --enable-libharfbuzz --enable-libvidstab --enable-libvmaf --enable-libzimg --enable-amf --enable-cuda-llvm --enable-cuvid --enable-dxva2 --enable-d3d11va --enable-d3d12va --enable-ffnvcodec --enable-libvpl --enable-nvdec --enable-nvenc --enable-vaapi --enable-openal --enable-libgme --enable-libopenmpt --enable-libopencore-amrwb --enable-libmp3lame --enable-libtheora --enable-libvo-amrwbenc --enable-libgsm --enable-libopencore-amrnb --enable-libopus --enable-libspeex --enable-libvorbis --enable-librubberband
2/16/2026 5:46:49 PM:   libavutil      60.  8.100 / 60.  8.100
2/16/2026 5:46:49 PM:   libavcodec     62. 11.100 / 62. 11.100
2/16/2026 5:46:49 PM:   libavformat    62.  3.100 / 62.  3.100
2/16/2026 5:46:49 PM:   libavdevice    62.  1.100 / 62.  1.100
2/16/2026 5:46:49 PM:   libavfilter    11.  4.100 / 11.  4.100
2/16/2026 5:46:49 PM:   libswscale      9.  1.100 /  9.  1.100
2/16/2026 5:46:49 PM:   libswresample   6.  1.100 /  6.  1.100
2/16/2026 5:46:59 PM: ffmpeg version 8.0.1-essentials_build-www.gyan.dev Copyright (c) 2000-2025 the FFmpeg developers
2/16/2026 5:46:59 PM:   built with gcc 15.2.0 (Rev8, Built by MSYS2 project)
2/16/2026 5:46:59 PM:   configuration: --enable-gpl --enable-version3 --enable-static --disable-w32threads --disable-autodetect --enable-fontconfig --enable-iconv --enable-gnutls --enable-libxml2 --enable-gmp --enable-bzlib --enable-lzma --enable-zlib --enable-libsrt --enable-libssh --enable-libzmq --enable-avisynth --enable-sdl2 --enable-libwebp --enable-libx264 --enable-libx265 --enable-libxvid --enable-libaom --enable-libopenjpeg --enable-libvpx --enable-mediafoundation --enable-libass --enable-libfreetype --enable-libfribidi --enable-libharfbuzz --enable-libvidstab --enable-libvmaf --enable-libzimg --enable-amf --enable-cuda-llvm --enable-cuvid --enable-dxva2 --enable-d3d11va --enable-d3d12va --enable-ffnvcodec --enable-libvpl --enable-nvdec --enable-nvenc --enable-vaapi --enable-openal --enable-libgme --enable-libopenmpt --enable-libopencore-amrwb --enable-libmp3lame --enable-libtheora --enable-libvo-amrwbenc --enable-libgsm --enable-libopencore-amrnb --enable-libopus --enable-libspeex --enable-libvorbis --enable-librubberband
2/16/2026 5:46:59 PM:   libavutil      60.  8.100 / 60.  8.100
2/16/2026 5:46:59 PM:   libavcodec     62. 11.100 / 62. 11.100
2/16/2026 5:46:59 PM:   libavformat    62.  3.100 / 62.  3.100
2/16/2026 5:46:59 PM:   libavdevice    62.  1.100 / 62.  1.100
2/16/2026 5:46:59 PM:   libavfilter    11.  4.100 / 11.  4.100
2/16/2026 5:46:59 PM:   libswscale      9.  1.100 /  9.  1.100
2/16/2026 5:46:59 PM:   libswresample   6.  1.100 /  6.  1.100
2/16/2026 5:47:09 PM: ffmpeg version 8.0.1-essentials_build-www.gyan.dev Copyright (c) 2000-2025 the FFmpeg developers
2/16/2026 5:47:09 PM:   built with gcc 15.2.0 (Rev8, Built by MSYS2 project)
2/16/2026 5:47:09 PM:   configuration: --enable-gpl --enable-version3 --enable-static --disable-w32threads --disable-autodetect --enable-fontconfig --enable-iconv --enable-gnutls --enable-libxml2 --enable-gmp --enable-bzlib --enable-lzma --enable-zlib --enable-libsrt --enable-libssh --enable-libzmq --enable-avisynth --enable-sdl2 --enable-libwebp --enable-libx264 --enable-libx265 --enable-libxvid --enable-libaom --enable-libopenjpeg --enable-libvpx --enable-mediafoundation --enable-libass --enable-libfreetype --enable-libfribidi --enable-libharfbuzz --enable-libvidstab --enable-libvmaf --enable-libzimg --enable-amf --enable-cuda-llvm --enable-cuvid --enable-dxva2 --enable-d3d11va --enable-d3d12va --enable-ffnvcodec --enable-libvpl --enable-nvdec --enable-nvenc --enable-vaapi --enable-openal --enable-libgme --enable-libopenmpt --enable-libopencore-amrwb --enable-libmp3lame --enable-libtheora --enable-libvo-amrwbenc --enable-libgsm --enable-libopencore-amrnb --enable-libopus --enable-libspeex --enable-libvorbis --enable-librubberband
2/16/2026 5:47:09 PM:   libavutil      60.  8.100 / 60.  8.100
2/16/2026 5:47:09 PM:   libavcodec     62. 11.100 / 62. 11.100
2/16/2026 5:47:09 PM:   libavformat    62.  3.100 / 62.  3.100
2/16/2026 5:47:09 PM:   libavdevice    62.  1.100 / 62.  1.100
2/16/2026 5:47:09 PM:   libavfilter    11.  4.100 / 11.  4.100
2/16/2026 5:47:09 PM:   libswscale      9.  1.100 /  9.  1.100
2/16/2026 5:47:09 PM:   libswresample   6.  1.100 /  6.  1.100
2/16/2026 5:47:19 PM: ffmpeg version 8.0.1-essentials_build-www.gyan.dev Copyright (c) 2000-2025 the FFmpeg developers
2/16/2026 5:47:19 PM:   built with gcc 15.2.0 (Rev8, Built by MSYS2 project)
2/16/2026 5:47:19 PM:   configuration: --enable-gpl --enable-version3 --enable-static --disable-w32threads --disable-autodetect --enable-fontconfig --enable-iconv --enable-gnutls --enable-libxml2 --enable-gmp --enable-bzlib --enable-lzma --enable-zlib --enable-libsrt --enable-libssh --enable-libzmq --enable-avisynth --enable-sdl2 --enable-libwebp --enable-libx264 --enable-libx265 --enable-libxvid --enable-libaom --enable-libopenjpeg --enable-libvpx --enable-mediafoundation --enable-libass --enable-libfreetype --enable-libfribidi --enable-libharfbuzz --enable-libvidstab --enable-libvmaf --enable-libzimg --enable-amf --enable-cuda-llvm --enable-cuvid --enable-dxva2 --enable-d3d11va --enable-d3d12va --enable-ffnvcodec --enable-libvpl --enable-nvdec --enable-nvenc --enable-vaapi --enable-openal --enable-libgme --enable-libopenmpt --enable-libopencore-amrwb --enable-libmp3lame --enable-libtheora --enable-libvo-amrwbenc --enable-libgsm --enable-libopencore-amrnb --enable-libopus --enable-libspeex --enable-libvorbis --enable-librubberband
2/16/2026 5:47:19 PM:   libavutil      60.  8.100 / 60.  8.100
2/16/2026 5:47:19 PM:   libavcodec     62. 11.100 / 62. 11.100
2/16/2026 5:47:19 PM:   libavformat    62.  3.100 / 62.  3.100
2/16/2026 5:47:19 PM:   libavdevice    62.  1.100 / 62.  1.100
2/16/2026 5:47:19 PM:   libavfilter    11.  4.100 / 11.  4.100
2/16/2026 5:47:19 PM:   libswscale      9.  1.100 /  9.  1.100
2/16/2026 5:47:19 PM:   libswresample   6.  1.100 /  6.  1.100
2/16/2026 5:47:29 PM: ffmpeg version 8.0.1-essentials_build-www.gyan.dev Copyright (c) 2000-2025 the FFmpeg developers
2/16/2026 5:47:29 PM:   built with gcc 15.2.0 (Rev8, Built by MSYS2 project)
2/16/2026 5:47:29 PM:   configuration: --enable-gpl --enable-version3 --enable-static --disable-w32threads --disable-autodetect --enable-fontconfig --enable-iconv --enable-gnutls --enable-libxml2 --enable-gmp --enable-bzlib --enable-lzma --enable-zlib --enable-libsrt --enable-libssh --enable-libzmq --enable-avisynth --enable-sdl2 --enable-libwebp --enable-libx264 --enable-libx265 --enable-libxvid --enable-libaom --enable-libopenjpeg --enable-libvpx --enable-mediafoundation --enable-libass --enable-libfreetype --enable-libfribidi --enable-libharfbuzz --enable-libvidstab --enable-libvmaf --enable-libzimg --enable-amf --enable-cuda-llvm --enable-cuvid --enable-dxva2 --enable-d3d11va --enable-d3d12va --enable-ffnvcodec --enable-libvpl --enable-nvdec --enable-nvenc --enable-vaapi --enable-openal --enable-libgme --enable-libopenmpt --enable-libopencore-amrwb --enable-libmp3lame --enable-libtheora --enable-libvo-amrwbenc --enable-libgsm --enable-libopencore-amrnb --enable-libopus --enable-libspeex --enable-libvorbis --enable-librubberband
2/16/2026 5:47:29 PM:   libavutil      60.  8.100 / 60.  8.100
2/16/2026 5:47:29 PM:   libavcodec     62. 11.100 / 62. 11.100
2/16/2026 5:47:29 PM:   libavformat    62.  3.100 / 62.  3.100
2/16/2026 5:47:29 PM:   libavdevice    62.  1.100 / 62.  1.100
2/16/2026 5:47:29 PM:   libavfilter    11.  4.100 / 11.  4.100
2/16/2026 5:47:29 PM:   libswscale      9.  1.100 /  9.  1.100
2/16/2026 5:47:29 PM:   libswresample   6.  1.100 /  6.  1.100
2/16/2026 5:47:39 PM: ffmpeg version 8.0.1-essentials_build-www.gyan.dev Copyright (c) 2000-2025 the FFmpeg developers
2/16/2026 5:47:39 PM:   built with gcc 15.2.0 (Rev8, Built by MSYS2 project)
2/16/2026 5:47:39 PM:   configuration: --enable-gpl --enable-version3 --enable-static --disable-w32threads --disable-autodetect --enable-fontconfig --enable-iconv --enable-gnutls --enable-libxml2 --enable-gmp --enable-bzlib --enable-lzma --enable-zlib --enable-libsrt --enable-libssh --enable-libzmq --enable-avisynth --enable-sdl2 --enable-libwebp --enable-libx264 --enable-libx265 --enable-libxvid --enable-libaom --enable-libopenjpeg --enable-libvpx --enable-mediafoundation --enable-libass --enable-libfreetype --enable-libfribidi --enable-libharfbuzz --enable-libvidstab --enable-libvmaf --enable-libzimg --enable-amf --enable-cuda-llvm --enable-cuvid --enable-dxva2 --enable-d3d11va --enable-d3d12va --enable-ffnvcodec --enable-libvpl --enable-nvdec --enable-nvenc --enable-vaapi --enable-openal --enable-libgme --enable-libopenmpt --enable-libopencore-amrwb --enable-libmp3lame --enable-libtheora --enable-libvo-amrwbenc --enable-libgsm --enable-libopencore-amrnb --enable-libopus --enable-libspeex --enable-libvorbis --enable-librubberband
2/16/2026 5:47:39 PM:   libavutil      60.  8.100 / 60.  8.100
2/16/2026 5:47:39 PM:   libavcodec     62. 11.100 / 62. 11.100
2/16/2026 5:47:39 PM:   libavformat    62.  3.100 / 62.  3.100
2/16/2026 5:47:39 PM:   libavdevice    62.  1.100 / 62.  1.100
2/16/2026 5:47:39 PM:   libavfilter    11.  4.100 / 11.  4.100
2/16/2026 5:47:39 PM:   libswscale      9.  1.100 /  9.  1.100
2/16/2026 5:47:39 PM:   libswresample   6.  1.100 /  6.  1.100
2/16/2026 5:47:49 PM: ffmpeg version 8.0.1-essentials_build-www.gyan.dev Copyright (c) 2000-2025 the FFmpeg developers
2/16/2026 5:47:49 PM:   built with gcc 15.2.0 (Rev8, Built by MSYS2 project)
2/16/2026 5:47:49 PM:   configuration: --enable-gpl --enable-version3 --enable-static --disable-w32threads --disable-autodetect --enable-fontconfig --enable-iconv --enable-gnutls --enable-libxml2 --enable-gmp --enable-bzlib --enable-lzma --enable-zlib --enable-libsrt --enable-libssh --enable-libzmq --enable-avisynth --enable-sdl2 --enable-libwebp --enable-libx264 --enable-libx265 --enable-libxvid --enable-libaom --enable-libopenjpeg --enable-libvpx --enable-mediafoundation --enable-libass --enable-libfreetype --enable-libfribidi --enable-libharfbuzz --enable-libvidstab --enable-libvmaf --enable-libzimg --enable-amf --enable-cuda-llvm --enable-cuvid --enable-dxva2 --enable-d3d11va --enable-d3d12va --enable-ffnvcodec --enable-libvpl --enable-nvdec --enable-nvenc --enable-vaapi --enable-openal --enable-libgme --enable-libopenmpt --enable-libopencore-amrwb --enable-libmp3lame --enable-libtheora --enable-libvo-amrwbenc --enable-libgsm --enable-libopencore-amrnb --enable-libopus --enable-libspeex --enable-libvorbis --enable-librubberband
2/16/2026 5:47:49 PM:   libavutil      60.  8.100 / 60.  8.100
2/16/2026 5:47:49 PM:   libavcodec     62. 11.100 / 62. 11.100
2/16/2026 5:47:49 PM:   libavformat    62.  3.100 / 62.  3.100
2/16/2026 5:47:49 PM:   libavdevice    62.  1.100 / 62.  1.100
2/16/2026 5:47:49 PM:   libavfilter    11.  4.100 / 11.  4.100
2/16/2026 5:47:49 PM:   libswscale      9.  1.100 /  9.  1.100
2/16/2026 5:47:49 PM:   libswresample   6.  1.100 /  6.  1.100
2/16/2026 5:47:56 PM: Input #0, rtsp, from 'rtsp://10.246.146.197:8080/h264.sdp':
2/16/2026 5:47:56 PM:   Metadata:
2/16/2026 5:47:56 PM:     title           : IP Webcam
2/16/2026 5:47:56 PM:   Duration: N/A, start: 0.033333, bitrate: N/A
2/16/2026 5:47:56 PM:   Stream #0:0: Video: h264 (High), yuv420p(tv, progressive), 640x480, 30 fps, 30 tbr, 90k tbn, start 0.033333
2/16/2026 5:47:56 PM: Stream mapping:
2/16/2026 5:47:56 PM:   Stream #0:0 -> #0:0 (copy)
2/16/2026 5:47:56 PM: Output #0, hls, to 'E:\track\tectnical\MVC\projects\p7\Deedlock\Deadlock.UI\wwwroot\api\streams\4\index.m3u8':
2/16/2026 5:47:56 PM:   Metadata:
2/16/2026 5:47:56 PM:     title           : IP Webcam
2/16/2026 5:47:56 PM:     encoder         : Lavf62.3.100
2/16/2026 5:47:56 PM:   Stream #0:0: Video: h264 (High), yuv420p(tv, progressive), 640x480, q=2-31, 30 fps, 30 tbr, 90k tbn
2/16/2026 5:47:56 PM: Press [q] to stop, [?] for help
2/16/2026 5:47:57 PM: frame=   33 fps=0.0 q=-1.0 size=N/A time=00:00:01.16 bitrate=N/A speed=2.27x elapsed=0:00:00.51    
2/16/2026 5:47:58 PM: frame=   33 fps= 32 q=-1.0 size=N/A time=00:00:01.16 bitrate=N/A speed=1.13x elapsed=0:00:01.03    
2/16/2026 5:47:58 PM: frame=   34 fps= 22 q=-1.0 size=N/A time=00:00:01.19 bitrate=N/A speed=0.774x elapsed=0:00:01.54    
2/16/2026 5:47:59 PM: frame=   37 fps= 18 q=-1.0 size=N/A time=00:00:01.29 bitrate=N/A speed=0.628x elapsed=0:00:02.07    
2/16/2026 5:47:59 PM: frame=   41 fps= 16 q=-1.0 size=N/A time=00:00:01.43 bitrate=N/A speed=0.554x elapsed=0:00:02.58    
2/16/2026 5:47:59 PM: ffmpeg version 8.0.1-essentials_build-www.gyan.dev Copyright (c) 2000-2025 the FFmpeg developers
2/16/2026 5:47:59 PM:   built with gcc 15.2.0 (Rev8, Built by MSYS2 project)
2/16/2026 5:47:59 PM:   configuration: --enable-gpl --enable-version3 --enable-static --disable-w32threads --disable-autodetect --enable-fontconfig --enable-iconv --enable-gnutls --enable-libxml2 --enable-gmp --enable-bzlib --enable-lzma --enable-zlib --enable-libsrt --enable-libssh --enable-libzmq --enable-avisynth --enable-sdl2 --enable-libwebp --enable-libx264 --enable-libx265 --enable-libxvid --enable-libaom --enable-libopenjpeg --enable-libvpx --enable-mediafoundation --enable-libass --enable-libfreetype --enable-libfribidi --enable-libharfbuzz --enable-libvidstab --enable-libvmaf --enable-libzimg --enable-amf --enable-cuda-llvm --enable-cuvid --enable-dxva2 --enable-d3d11va --enable-d3d12va --enable-ffnvcodec --enable-libvpl --enable-nvdec --enable-nvenc --enable-vaapi --enable-openal --enable-libgme --enable-libopenmpt --enable-libopencore-amrwb --enable-libmp3lame --enable-libtheora --enable-libvo-amrwbenc --enable-libgsm --enable-libopencore-amrnb --enable-libopus --enable-libspeex --enable-libvorbis --enable-librubberband
2/16/2026 5:47:59 PM:   libavutil      60.  8.100 / 60.  8.100
2/16/2026 5:47:59 PM:   libavcodec     62. 11.100 / 62. 11.100
2/16/2026 5:47:59 PM:   libavformat    62.  3.100 / 62.  3.100
2/16/2026 5:47:59 PM:   libavdevice    62.  1.100 / 62.  1.100
2/16/2026 5:47:59 PM:   libavfilter    11.  4.100 / 11.  4.100
2/16/2026 5:47:59 PM:   libswscale      9.  1.100 /  9.  1.100
2/16/2026 5:47:59 PM:   libswresample   6.  1.100 /  6.  1.100
2/16/2026 5:48:09 PM: ffmpeg version 8.0.1-essentials_build-www.gyan.dev Copyright (c) 2000-2025 the FFmpeg developers
2/16/2026 5:48:09 PM:   built with gcc 15.2.0 (Rev8, Built by MSYS2 project)
2/16/2026 5:48:09 PM:   configuration: --enable-gpl --enable-version3 --enable-static --disable-w32threads --disable-autodetect --enable-fontconfig --enable-iconv --enable-gnutls --enable-libxml2 --enable-gmp --enable-bzlib --enable-lzma --enable-zlib --enable-libsrt --enable-libssh --enable-libzmq --enable-avisynth --enable-sdl2 --enable-libwebp --enable-libx264 --enable-libx265 --enable-libxvid --enable-libaom --enable-libopenjpeg --enable-libvpx --enable-mediafoundation --enable-libass --enable-libfreetype --enable-libfribidi --enable-libharfbuzz --enable-libvidstab --enable-libvmaf --enable-libzimg --enable-amf --enable-cuda-llvm --enable-cuvid --enable-dxva2 --enable-d3d11va --enable-d3d12va --enable-ffnvcodec --enable-libvpl --enable-nvdec --enable-nvenc --enable-vaapi --enable-openal --enable-libgme --enable-libopenmpt --enable-libopencore-amrwb --enable-libmp3lame --enable-libtheora --enable-libvo-amrwbenc --enable-libgsm --enable-libopencore-amrnb --enable-libopus --enable-libspeex --enable-libvorbis --enable-librubberband
2/16/2026 5:48:09 PM:   libavutil      60.  8.100 / 60.  8.100
2/16/2026 5:48:09 PM:   libavcodec     62. 11.100 / 62. 11.100
2/16/2026 5:48:09 PM:   libavformat    62.  3.100 / 62.  3.100
2/16/2026 5:48:09 PM:   libavdevice    62.  1.100 / 62.  1.100
2/16/2026 5:48:09 PM:   libavfilter    11.  4.100 / 11.  4.100
2/16/2026 5:48:09 PM:   libswscale      9.  1.100 /  9.  1.100
2/16/2026 5:48:09 PM:   libswresample   6.  1.100 /  6.  1.100
2/16/2026 5:48:15 PM: Input #0, rtsp, from 'rtsp://10.246.146.197:8080/h264.sdp':
2/16/2026 5:48:15 PM:   Metadata:
2/16/2026 5:48:15 PM:     title           : IP Webcam
2/16/2026 5:48:15 PM:   Duration: N/A, start: 0.033333, bitrate: N/A
2/16/2026 5:48:15 PM:   Stream #0:0: Video: h264 (High), yuv420p(tv, progressive), 640x480, 30 fps, 30 tbr, 90k tbn, start 0.033333
2/16/2026 5:48:15 PM: Stream mapping:
2/16/2026 5:48:15 PM:   Stream #0:0 -> #0:0 (copy)
2/16/2026 5:48:15 PM: Output #0, hls, to 'E:\track\tectnical\MVC\projects\p7\Deedlock\Deadlock.UI\wwwroot\api\streams\4\index.m3u8':
2/16/2026 5:48:15 PM:   Metadata:
2/16/2026 5:48:15 PM:     title           : IP Webcam
2/16/2026 5:48:15 PM:     encoder         : Lavf62.3.100
2/16/2026 5:48:15 PM:   Stream #0:0: Video: h264 (High), yuv420p(tv, progressive), 640x480, q=2-31, 30 fps, 30 tbr, 90k tbn
2/16/2026 5:48:15 PM: Press [q] to stop, [?] for help
2/16/2026 5:48:15 PM: [hls @ 0000018c158d5780] Timestamps are unset in a packet for stream 0. This is deprecated and will stop working in the future. Fix your code to set the timestamps properly
2/16/2026 5:48:15 PM: [vost#0:0/copy @ 0000018c15618ac0] Non-monotonic DTS; previous: 0, current: 0; changing to 1. This may result in incorrect timestamps in the output file.
2/16/2026 5:48:16 PM: frame=   38 fps=0.0 q=-1.0 size=N/A time=00:00:01.23 bitrate=N/A speed=2.42x elapsed=0:00:00.51    
2/16/2026 5:48:17 PM: frame=   41 fps= 39 q=-1.0 size=N/A time=00:00:01.33 bitrate=N/A speed=1.28x elapsed=0:00:01.04    
2/16/2026 5:48:17 PM: frame=   45 fps= 29 q=-1.0 size=N/A time=00:00:01.46 bitrate=N/A speed=0.937x elapsed=0:00:01.56    
2/16/2026 5:48:18 PM: frame=   49 fps= 24 q=-1.0 size=N/A time=00:00:01.59 bitrate=N/A speed=0.769x elapsed=0:00:02.08    
2/16/2026 5:48:18 PM: frame=   54 fps= 21 q=-1.0 size=N/A time=00:00:01.76 bitrate=N/A speed=0.681x elapsed=0:00:02.59    
2/16/2026 5:48:19 PM: frame=   54 fps= 17 q=-1.0 size=N/A time=00:00:01.76 bitrate=N/A speed=0.567x elapsed=0:00:03.11    
2/16/2026 5:48:19 PM: frame=   58 fps= 16 q=-1.0 size=N/A time=00:00:01.89 bitrate=N/A speed=0.524x elapsed=0:00:03.62    
2/16/2026 5:48:19 PM: frame=   64 fps= 15 q=-1.0 size=N/A time=00:00:02.09 bitrate=N/A speed=0.507x elapsed=0:00:04.14    
2/16/2026 5:48:20 PM: ffmpeg version 8.0.1-essentials_build-www.gyan.dev Copyright (c) 2000-2025 the FFmpeg developers
2/16/2026 5:48:20 PM:   built with gcc 15.2.0 (Rev8, Built by MSYS2 project)
2/16/2026 5:48:20 PM:   configuration: --enable-gpl --enable-version3 --enable-static --disable-w32threads --disable-autodetect --enable-fontconfig --enable-iconv --enable-gnutls --enable-libxml2 --enable-gmp --enable-bzlib --enable-lzma --enable-zlib --enable-libsrt --enable-libssh --enable-libzmq --enable-avisynth --enable-sdl2 --enable-libwebp --enable-libx264 --enable-libx265 --enable-libxvid --enable-libaom --enable-libopenjpeg --enable-libvpx --enable-mediafoundation --enable-libass --enable-libfreetype --enable-libfribidi --enable-libharfbuzz --enable-libvidstab --enable-libvmaf --enable-libzimg --enable-amf --enable-cuda-llvm --enable-cuvid --enable-dxva2 --enable-d3d11va --enable-d3d12va --enable-ffnvcodec --enable-libvpl --enable-nvdec --enable-nvenc --enable-vaapi --enable-openal --enable-libgme --enable-libopenmpt --enable-libopencore-amrwb --enable-libmp3lame --enable-libtheora --enable-libvo-amrwbenc --enable-libgsm --enable-libopencore-amrnb --enable-libopus --enable-libspeex --enable-libvorbis --enable-librubberband
2/16/2026 5:48:20 PM:   libavutil      60.  8.100 / 60.  8.100
2/16/2026 5:48:20 PM:   libavcodec     62. 11.100 / 62. 11.100
2/16/2026 5:48:20 PM:   libavformat    62.  3.100 / 62.  3.100
2/16/2026 5:48:20 PM:   libavdevice    62.  1.100 / 62.  1.100
2/16/2026 5:48:20 PM:   libavfilter    11.  4.100 / 11.  4.100
2/16/2026 5:48:20 PM:   libswscale      9.  1.100 /  9.  1.100
2/16/2026 5:48:20 PM:   libswresample   6.  1.100 /  6.  1.100
2/16/2026 5:48:27 PM: Input #0, rtsp, from 'rtsp://10.246.146.197:8080/h264.sdp':
2/16/2026 5:48:27 PM:   Metadata:
2/16/2026 5:48:27 PM:     title           : IP Webcam
2/16/2026 5:48:27 PM:   Duration: N/A, start: 0.033333, bitrate: N/A
2/16/2026 5:48:27 PM:   Stream #0:0: Video: h264 (High), yuv420p(tv, progressive), 640x480, 30 fps, 30 tbr, 90k tbn, start 0.033333
2/16/2026 5:48:27 PM: Stream mapping:
2/16/2026 5:48:27 PM:   Stream #0:0 -> #0:0 (copy)
2/16/2026 5:48:27 PM: Output #0, hls, to 'E:\track\tectnical\MVC\projects\p7\Deedlock\Deadlock.UI\wwwroot\api\streams\4\index.m3u8':
2/16/2026 5:48:27 PM:   Metadata:
2/16/2026 5:48:27 PM:     title           : IP Webcam
2/16/2026 5:48:27 PM:     encoder         : Lavf62.3.100
2/16/2026 5:48:27 PM:   Stream #0:0: Video: h264 (High), yuv420p(tv, progressive), 640x480, q=2-31, 30 fps, 30 tbr, 90k tbn
2/16/2026 5:48:27 PM: Press [q] to stop, [?] for help
2/16/2026 5:48:28 PM: frame=   28 fps=0.0 q=-1.0 size=N/A time=00:00:00.93 bitrate=N/A speed=1.84x elapsed=0:00:00.50    
2/16/2026 5:48:28 PM: frame=   28 fps= 27 q=-1.0 size=N/A time=00:00:00.93 bitrate=N/A speed=0.908x elapsed=0:00:01.02    
2/16/2026 5:48:29 PM: frame=   28 fps= 18 q=-1.0 size=N/A time=00:00:00.93 bitrate=N/A speed=0.606x elapsed=0:00:01.53    
2/16/2026 5:48:29 PM: frame=   28 fps= 14 q=-1.0 size=N/A time=00:00:00.93 bitrate=N/A speed=0.454x elapsed=0:00:02.05    
2/16/2026 5:48:29 PM: frame=   28 fps= 11 q=-1.0 size=N/A time=00:00:00.93 bitrate=N/A speed=0.363x elapsed=0:00:02.57    
2/16/2026 5:48:30 PM: ffmpeg version 8.0.1-essentials_build-www.gyan.dev Copyright (c) 2000-2025 the FFmpeg developers
2/16/2026 5:48:30 PM:   built with gcc 15.2.0 (Rev8, Built by MSYS2 project)
2/16/2026 5:48:30 PM:   configuration: --enable-gpl --enable-version3 --enable-static --disable-w32threads --disable-autodetect --enable-fontconfig --enable-iconv --enable-gnutls --enable-libxml2 --enable-gmp --enable-bzlib --enable-lzma --enable-zlib --enable-libsrt --enable-libssh --enable-libzmq --enable-avisynth --enable-sdl2 --enable-libwebp --enable-libx264 --enable-libx265 --enable-libxvid --enable-libaom --enable-libopenjpeg --enable-libvpx --enable-mediafoundation --enable-libass --enable-libfreetype --enable-libfribidi --enable-libharfbuzz --enable-libvidstab --enable-libvmaf --enable-libzimg --enable-amf --enable-cuda-llvm --enable-cuvid --enable-dxva2 --enable-d3d11va --enable-d3d12va --enable-ffnvcodec --enable-libvpl --enable-nvdec --enable-nvenc --enable-vaapi --enable-openal --enable-libgme --enable-libopenmpt --enable-libopencore-amrwb --enable-libmp3lame --enable-libtheora --enable-libvo-amrwbenc --enable-libgsm --enable-libopencore-amrnb --enable-libopus --enable-libspeex --enable-libvorbis --enable-librubberband
2/16/2026 5:48:30 PM:   libavutil      60.  8.100 / 60.  8.100
2/16/2026 5:48:30 PM:   libavcodec     62. 11.100 / 62. 11.100
2/16/2026 5:48:30 PM:   libavformat    62.  3.100 / 62.  3.100
2/16/2026 5:48:30 PM:   libavdevice    62.  1.100 / 62.  1.100
2/16/2026 5:48:30 PM:   libavfilter    11.  4.100 / 11.  4.100
2/16/2026 5:48:30 PM:   libswscale      9.  1.100 /  9.  1.100
2/16/2026 5:48:30 PM:   libswresample   6.  1.100 /  6.  1.100
2/16/2026 5:48:40 PM: ffmpeg version 8.0.1-essentials_build-www.gyan.dev Copyright (c) 2000-2025 the FFmpeg developers
2/16/2026 5:48:40 PM:   built with gcc 15.2.0 (Rev8, Built by MSYS2 project)
2/16/2026 5:48:40 PM:   configuration: --enable-gpl --enable-version3 --enable-static --disable-w32threads --disable-autodetect --enable-fontconfig --enable-iconv --enable-gnutls --enable-libxml2 --enable-gmp --enable-bzlib --enable-lzma --enable-zlib --enable-libsrt --enable-libssh --enable-libzmq --enable-avisynth --enable-sdl2 --enable-libwebp --enable-libx264 --enable-libx265 --enable-libxvid --enable-libaom --enable-libopenjpeg --enable-libvpx --enable-mediafoundation --enable-libass --enable-libfreetype --enable-libfribidi --enable-libharfbuzz --enable-libvidstab --enable-libvmaf --enable-libzimg --enable-amf --enable-cuda-llvm --enable-cuvid --enable-dxva2 --enable-d3d11va --enable-d3d12va --enable-ffnvcodec --enable-libvpl --enable-nvdec --enable-nvenc --enable-vaapi --enable-openal --enable-libgme --enable-libopenmpt --enable-libopencore-amrwb --enable-libmp3lame --enable-libtheora --enable-libvo-amrwbenc --enable-libgsm --enable-libopencore-amrnb --enable-libopus --enable-libspeex --enable-libvorbis --enable-librubberband
2/16/2026 5:48:40 PM:   libavutil      60.  8.100 / 60.  8.100
2/16/2026 5:48:40 PM:   libavcodec     62. 11.100 / 62. 11.100
2/16/2026 5:48:40 PM:   libavformat    62.  3.100 / 62.  3.100
2/16/2026 5:48:40 PM:   libavdevice    62.  1.100 / 62.  1.100
2/16/2026 5:48:40 PM:   libavfilter    11.  4.100 / 11.  4.100
2/16/2026 5:48:40 PM:   libswscale      9.  1.100 /  9.  1.100
2/16/2026 5:48:40 PM:   libswresample   6.  1.100 /  6.  1.100
2/16/2026 5:48:50 PM: ffmpeg version 8.0.1-essentials_build-www.gyan.dev Copyright (c) 2000-2025 the FFmpeg developers
2/16/2026 5:48:50 PM:   built with gcc 15.2.0 (Rev8, Built by MSYS2 project)
2/16/2026 5:48:50 PM:   configuration: --enable-gpl --enable-version3 --enable-static --disable-w32threads --disable-autodetect --enable-fontconfig --enable-iconv --enable-gnutls --enable-libxml2 --enable-gmp --enable-bzlib --enable-lzma --enable-zlib --enable-libsrt --enable-libssh --enable-libzmq --enable-avisynth --enable-sdl2 --enable-libwebp --enable-libx264 --enable-libx265 --enable-libxvid --enable-libaom --enable-libopenjpeg --enable-libvpx --enable-mediafoundation --enable-libass --enable-libfreetype --enable-libfribidi --enable-libharfbuzz --enable-libvidstab --enable-libvmaf --enable-libzimg --enable-amf --enable-cuda-llvm --enable-cuvid --enable-dxva2 --enable-d3d11va --enable-d3d12va --enable-ffnvcodec --enable-libvpl --enable-nvdec --enable-nvenc --enable-vaapi --enable-openal --enable-libgme --enable-libopenmpt --enable-libopencore-amrwb --enable-libmp3lame --enable-libtheora --enable-libvo-amrwbenc --enable-libgsm --enable-libopencore-amrnb --enable-libopus --enable-libspeex --enable-libvorbis --enable-librubberband
2/16/2026 5:48:50 PM:   libavutil      60.  8.100 / 60.  8.100
2/16/2026 5:48:50 PM:   libavcodec     62. 11.100 / 62. 11.100
2/16/2026 5:48:50 PM:   libavformat    62.  3.100 / 62.  3.100
2/16/2026 5:48:50 PM:   libavdevice    62.  1.100 / 62.  1.100
2/16/2026 5:48:50 PM:   libavfilter    11.  4.100 / 11.  4.100
2/16/2026 5:48:50 PM:   libswscale      9.  1.100 /  9.  1.100
2/16/2026 5:48:50 PM:   libswresample   6.  1.100 /  6.  1.100
2/16/2026 5:49:00 PM: ffmpeg version 8.0.1-essentials_build-www.gyan.dev Copyright (c) 2000-2025 the FFmpeg developers
2/16/2026 5:49:00 PM:   built with gcc 15.2.0 (Rev8, Built by MSYS2 project)
2/16/2026 5:49:00 PM:   configuration: --enable-gpl --enable-version3 --enable-static --disable-w32threads --disable-autodetect --enable-fontconfig --enable-iconv --enable-gnutls --enable-libxml2 --enable-gmp --enable-bzlib --enable-lzma --enable-zlib --enable-libsrt --enable-libssh --enable-libzmq --enable-avisynth --enable-sdl2 --enable-libwebp --enable-libx264 --enable-libx265 --enable-libxvid --enable-libaom --enable-libopenjpeg --enable-libvpx --enable-mediafoundation --enable-libass --enable-libfreetype --enable-libfribidi --enable-libharfbuzz --enable-libvidstab --enable-libvmaf --enable-libzimg --enable-amf --enable-cuda-llvm --enable-cuvid --enable-dxva2 --enable-d3d11va --enable-d3d12va --enable-ffnvcodec --enable-libvpl --enable-nvdec --enable-nvenc --enable-vaapi --enable-openal --enable-libgme --enable-libopenmpt --enable-libopencore-amrwb --enable-libmp3lame --enable-libtheora --enable-libvo-amrwbenc --enable-libgsm --enable-libopencore-amrnb --enable-libopus --enable-libspeex --enable-libvorbis --enable-librubberband
2/16/2026 5:49:00 PM:   libavutil      60.  8.100 / 60.  8.100
2/16/2026 5:49:00 PM:   libavcodec     62. 11.100 / 62. 11.100
2/16/2026 5:49:00 PM:   libavformat    62.  3.100 / 62.  3.100
2/16/2026 5:49:00 PM:   libavdevice    62.  1.100 / 62.  1.100
2/16/2026 5:49:00 PM:   libavfilter    11.  4.100 / 11.  4.100
2/16/2026 5:49:00 PM:   libswscale      9.  1.100 /  9.  1.100
2/16/2026 5:49:00 PM:   libswresample   6.  1.100 /  6.  1.100
2/16/2026 5:49:10 PM: ffmpeg version 8.0.1-essentials_build-www.gyan.dev Copyright (c) 2000-2025 the FFmpeg developers
2/16/2026 5:49:10 PM:   built with gcc 15.2.0 (Rev8, Built by MSYS2 project)
2/16/2026 5:49:10 PM:   configuration: --enable-gpl --enable-version3 --enable-static --disable-w32threads --disable-autodetect --enable-fontconfig --enable-iconv --enable-gnutls --enable-libxml2 --enable-gmp --enable-bzlib --enable-lzma --enable-zlib --enable-libsrt --enable-libssh --enable-libzmq --enable-avisynth --enable-sdl2 --enable-libwebp --enable-libx264 --enable-libx265 --enable-libxvid --enable-libaom --enable-libopenjpeg --enable-libvpx --enable-mediafoundation --enable-libass --enable-libfreetype --enable-libfribidi --enable-libharfbuzz --enable-libvidstab --enable-libvmaf --enable-libzimg --enable-amf --enable-cuda-llvm --enable-cuvid --enable-dxva2 --enable-d3d11va --enable-d3d12va --enable-ffnvcodec --enable-libvpl --enable-nvdec --enable-nvenc --enable-vaapi --enable-openal --enable-libgme --enable-libopenmpt --enable-libopencore-amrwb --enable-libmp3lame --enable-libtheora --enable-libvo-amrwbenc --enable-libgsm --enable-libopencore-amrnb --enable-libopus --enable-libspeex --enable-libvorbis --enable-librubberband
2/16/2026 5:49:10 PM:   libavutil      60.  8.100 / 60.  8.100
2/16/2026 5:49:10 PM:   libavcodec     62. 11.100 / 62. 11.100
2/16/2026 5:49:10 PM:   libavformat    62.  3.100 / 62.  3.100
2/16/2026 5:49:10 PM:   libavdevice    62.  1.100 / 62.  1.100
2/16/2026 5:49:10 PM:   libavfilter    11.  4.100 / 11.  4.100
2/16/2026 5:49:10 PM:   libswscale      9.  1.100 /  9.  1.100
2/16/2026 5:49:10 PM:   libswresample   6.  1.100 /  6.  1.100
